<svg xmlns="http://www.w3.org/2000/svg" xmlns:xlink="http://www.w3.org/1999/xlink" version="1.1" class="marks" width="399.734375" height="400" viewBox="0 0 399.734375 400"><rect width="399.734375" height="400" fill="#ffffff"/><g fill="none" stroke-miterlimit="10" transform="translate(85,3)"><g class="mark-group role-frame root" role="graphics-object" aria-roledescription="group mark container"><g transform="translate(0,0)"><path class="background" aria-hidden="true" d="M0,0h311.734375v253h-311.734375Z" stroke-width="0"/><g><g class="mark-group role-axis" aria-hidden="true"><g transform="translate(0.5,253.5)"><path class="background" aria-hidden="true" d="M0,0h0v0h0Z" pointer-events="none"/><g><g class="mark-rule role-axis-grid" pointer-events="none"><line transform="translate(0,-253)" x2="0" y2="253" stroke="#e6eaf1" stroke-width="1" opacity="1"/><line transform="translate(26,-253)" x2="0" y2="253" stroke="#e6eaf1" stroke-width="1" opacity="1"/><line transform="translate(52,-253)" x2="0" y2="253" stroke="#e6eaf1" stroke-width="1" opacity="1"/><line transform="translate(78,-253)" x2="0" y2="253" stroke="#e6eaf1" stroke-width="1" opacity="1"/><line transform="translate(104,-253)" x2="0" y2="253" stroke="#e6eaf1" stroke-width="1" opacity="1"/><line transform="translate(130,-253)" x2="0" y2="253" stroke="#e6eaf1" stroke-width="1" opacity="1"/><line transform="translate(156,-253)" x2="0" y2="253" stroke="#e6eaf1" stroke-width="1" opacity="1"/><line transform="translate(182,-253)" x2="0" y2="253" stroke="#e6eaf1" stroke-width="1" opacity="1"/><line transform="translate(208,-253)" x2="0" y2="253" stroke="#e6eaf1" stroke-width="1" opacity="1"/><line transform="translate(234,-253)" x2="0" y2="253" stroke="#e6eaf1" stroke-width="1" opacity="1"/><line transform="translate(260,-253)" x2="0" y2="253" stroke="#e6eaf1" stroke-width="1" opacity="1"/><line transform="translate(286,-253)" x2="0" y2="253" stroke="#e6eaf1" stroke-width="1" opacity="1"/><line transform="translate(312,-253)" x2="0" y2="253" stroke="#e6eaf1" stroke-width="1" opacity="1"/></g></g><path class="foreground" aria-hidden="true" d="" pointer-events="none" display="none"/></g></g><g class="mark-group role-axis" aria-hidden="true"><g transform="translate(0.5,0.5)"><path class="background" aria-hidden="true" d="M0,0h0v0h0Z" pointer-events="none"/><g><g class="mark-rule role-axis-grid" pointer-events="none"><line transform="translate(0,253)" x2="311.734375" y2="0" stroke="#e6eaf1" stroke-width="1" opacity="1"/><line transform="translate(0,238)" x2="311.734375" y2="0" stroke="#e6eaf1" stroke-width="1" opacity="1"/><line transform="translate(0,229)" x2="311.734375" y2="0" stroke="#e6eaf1" stroke-width="1" opacity="1"/><line transform="translate(0,223)" x2="311.734375" y2="0" stroke="#e6eaf1" stroke-width="1" opacity="1"/><line transform="translate(0,218)" x2="311.734375" y2="0" stroke="#e6eaf1" stroke-width="1" opacity="1"/><line transform="translate(0,214)" x2="311.734375" y2="0" stroke="#e6eaf1" stroke-width="1" opacity="1"/><line transform="translate(0,210)" x2="311.734375" y2="0" stroke="#e6eaf1" stroke-width="1" opacity="1"/><line transform="translate(0,207)" x2="311.734375" y2="0" stroke="#e6eaf1" stroke-width="1" opacity="1"/><line transform="translate(0,205)" x2="311.734375" y2="0" stroke="#e6eaf1" stroke-width="1" opacity="1"/><line transform="translate(0,202)" x2="311.734375" y2="0" stroke="#e6eaf1" stroke-width="1" opacity="1"/><line transform="translate(0,187)" x2="311.734375" y2="0" stroke="#e6eaf1" stroke-width="1" opacity="1"/><line transform="translate(0,178)" x2="311.734375" y2="0" stroke="#e6eaf1" stroke-width="1" opacity="1"/><line transform="translate(0,172)" x2="311.734375" y2="0" stroke="#e6eaf1" stroke-width="1" opacity="1"/><line transform="translate(0,167)" x2="311.734375" y2="0" stroke="#e6eaf1" stroke-width="1" opacity="1"/><line transform="translate(0,163)" x2="311.734375" y2="0" stroke="#e6eaf1" stroke-width="1" opacity="1"/><line transform="translate(0,160)" x2="311.734375" y2="0" stroke="#e6eaf1" stroke-width="1" opacity="1"/><line transform="translate(0,157)" x2="311.734375" y2="0" stroke="#e6eaf1" stroke-width="1" opacity="1"/><line transform="translate(0,154)" x2="311.734375" y2="0" stroke="#e6eaf1" stroke-width="1" opacity="1"/><line transform="translate(0,152)" x2="311.734375" y2="0" stroke="#e6eaf1" stroke-width="1" opacity="1"/><line transform="translate(0,137)" x2="311.734375" y2="0" stroke="#e6eaf1" stroke-width="1" opacity="1"/><line transform="translate(0,128)" x2="311.734375" y2="0" stroke="#e6eaf1" stroke-width="1" opacity="1"/><line transform="translate(0,121)" x2="311.734375" y2="0" stroke="#e6eaf1" stroke-width="1" opacity="1"/><line transform="translate(0,116)" x2="311.734375" y2="0" stroke="#e6eaf1" stroke-width="1" opacity="1"/><line transform="translate(0,112)" x2="311.734375" y2="0" stroke="#e6eaf1" stroke-width="1" opacity="1"/><line transform="translate(0,109)" x2="311.734375" y2="0" stroke="#e6eaf1" stroke-width="1" opacity="1"/><line transform="translate(0,106)" x2="311.734375" y2="0" stroke="#e6eaf1" stroke-width="1" opacity="1"/><line transform="translate(0,104)" x2="311.734375" y2="0" stroke="#e6eaf1" stroke-width="1" opacity="1"/><line transform="translate(0,101)" x2="311.734375" y2="0" stroke="#e6eaf1" stroke-width="1" opacity="1"/><line transform="translate(0,86)" x2="311.734375" y2="0" stroke="#e6eaf1" stroke-width="1" opacity="1"/><line transform="translate(0,77)" x2="311.734375" y2="0" stroke="#e6eaf1" stroke-width="1" opacity="1"/><line transform="translate(0,71)" x2="311.734375" y2="0" stroke="#e6eaf1" stroke-width="1" opacity="1"/><line transform="translate(0,66)" x2="311.734375" y2="0" stroke="#e6eaf1" stroke-width="1" opacity="1"/><line transform="translate(0,62)" x2="311.734375" y2="0" stroke="#e6eaf1" stroke-width="1" opacity="1"/><line transform="translate(0,58)" x2="311.734375" y2="0" stroke="#e6eaf1" stroke-width="1" opacity="1"/><line transform="translate(0,56)" x2="311.734375" y2="0" stroke="#e6eaf1" stroke-width="1" opacity="1"/><line transform="translate(0,53)" x2="311.734375" y2="0" stroke="#e6eaf1" stroke-width="1" opacity="1"/><line transform="translate(0,51)" x2="311.734375" y2="0" stroke="#e6eaf1" stroke-width="1" opacity="1"/><line transform="translate(0,35)" x2="311.734375" y2="0" stroke="#e6eaf1" stroke-width="1" opacity="1"/><line transform="translate(0,26)" x2="311.734375" y2="0" stroke="#e6eaf1" stroke-width="1" opacity="1"/><line transform="translate(0,20)" x2="311.734375" y2="0" stroke="#e6eaf1" stroke-width="1" opacity="1"/><line transform="translate(0,15)" x2="311.734375" y2="0" stroke="#e6eaf1" stroke-width="1" opacity="1"/><line transform="translate(0,11)" x2="311.734375" y2="0" stroke="#e6eaf1" stroke-width="1" opacity="1"/><line transform="translate(0,8)" x2="311.734375" y2="0" stroke="#e6eaf1" stroke-width="1" opacity="1"/><line transform="translate(0,5)" x2="311.734375" y2="0" stroke="#e6eaf1" stroke-width="1" opacity="1"/><line transform="translate(0,2)" x2="311.734375" y2="0" stroke="#e6eaf1" stroke-width="1" opacity="1"/><line transform="translate(0,0)" x2="311.734375" y2="0" stroke="#e6eaf1" stroke-width="1" opacity="1"/></g></g><path class="foreground" aria-hidden="true" d="" pointer-events="none" display="none"/></g></g><g class="mark-group role-axis" role="graphics-symbol" aria-roledescription="axis" aria-label="X-axis titled 'Number of Validated Messages' for a log scale with values from 2 to 8,192"><g transform="translate(0.5,253.5)"><path class="background" aria-hidden="true" d="M0,0h0v0h0Z" pointer-events="none"/><g><g class="mark-text role-axis-label" pointer-events="none"><text text-anchor="start" transform="translate(-1,25)" font-family="&quot;Source Sans&quot;, sans-serif" font-size="12px" font-style="normal" font-weight="400" fill="#808495" opacity="1">2</text><text text-anchor="middle" transform="translate(25.977864583333336,25)" font-family="&quot;Source Sans&quot;, sans-serif" font-size="12px" font-style="normal" font-weight="400" fill="#808495" opacity="0">4</text><text text-anchor="middle" transform="translate(51.955729166666664,25)" font-family="&quot;Source Sans&quot;, sans-serif" font-size="12px" font-style="normal" font-weight="400" fill="#808495" opacity="1">8</text><text text-anchor="middle" transform="translate(77.93359375,25)" font-family="&quot;Source Sans&quot;, sans-serif" font-size="12px" font-style="normal" font-weight="400" fill="#808495" opacity="0">16</text><text text-anchor="middle" transform="translate(103.91145833333334,25)" font-family="&quot;Source Sans&quot;, sans-serif" font-size="12px" font-style="normal" font-weight="400" fill="#808495" opacity="1">32</text><text text-anchor="middle" transform="translate(129.88932291666666,25)" font-family="&quot;Source Sans&quot;, sans-serif" font-size="12px" font-style="normal" font-weight="400" fill="#808495" opacity="0">64</text><text text-anchor="middle" transform="translate(155.8671875,25)" font-family="&quot;Source Sans&quot;, sans-serif" font-size="12px" font-style="normal" font-weight="400" fill="#808495" opacity="1">128</text><text text-anchor="middle" transform="translate(181.84505208333334,25)" font-family="&quot;Source Sans&quot;, sans-serif" font-size="12px" font-style="normal" font-weight="400" fill="#808495" opacity="0">256</text><text text-anchor="middle" transform="translate(207.82291666666669,25)" font-family="&quot;Source Sans&quot;, sans-serif" font-size="12px" font-style="normal" font-weight="400" fill="#808495" opacity="1">512</text><text text-anchor="middle" transform="translate(233.80078125,25)" font-family="&quot;Source Sans&quot;, sans-serif" font-size="12px" font-style="normal" font-weight="400" fill="#808495" opacity="0">1,024</text><text text-anchor="middle" transform="translate(259.77864583333337,25)" font-family="&quot;Source Sans&quot;, sans-serif" font-size="12px" font-style="normal" font-weight="400" fill="#808495" opacity="1">2,048</text><text text-anchor="middle" transform="translate(285.75651041666663,25)" font-family="&quot;Source Sans&quot;, sans-serif" font-size="12px" font-style="normal" font-weight="400" fill="#808495" opacity="0">4,096</text><text text-anchor="end" transform="translate(312.734375,25)" font-family="&quot;Source Sans&quot;, sans-serif" font-size="12px" font-style="normal" font-weight="400" fill="#808495" opacity="1">8,192</text></g><g class="mark-text role-axis-title" pointer-events="none"><text text-anchor="middle" transform="translate(155.8671875,54)" font-family="&quot;Source Sans&quot;, sans-serif" font-size="14px" font-style="normal" font-weight="400" fill="#808495" opacity="1">Number of Validated Messages</text></g></g><path class="foreground" aria-hidden="true" d="" pointer-events="none" display="none"/></g></g><g class="mark-group role-axis" role="graphics-symbol" aria-roledescription="axis" aria-label="Y-axis titled 'False Positive Ratio' for a log scale with values from 0.00001 to 1"><g transform="translate(0.5,0.5)"><path class="background" aria-hidden="true" d="M0,0h0v0h0Z" pointer-events="none"/><g><g class="mark-text role-axis-label" pointer-events="none"><text text-anchor="end" transform="translate(-16,251)" font-family="&quot;Source Sans&quot;, sans-serif" font-size="12px" font-style="normal" font-weight="400" fill="#808495" opacity="1">0.00001</text><text text-anchor="end" transform="translate(-16,241.76788221940257)" font-family="&quot;Source Sans&quot;, sans-serif" font-size="12px" font-style="normal" font-weight="400" fill="#808495" opacity="0">0.00002</text><text text-anchor="end" transform="translate(-16,232.85766451118508)" font-family="&quot;Source Sans&quot;, sans-serif" font-size="12px" font-style="normal" font-weight="400" fill="#808495" opacity="1"/><text text-anchor="end" transform="translate(-16,226.5357644388051)" font-family="&quot;Source Sans&quot;, sans-serif" font-size="12px" font-style="normal" font-weight="400" fill="#808495" opacity="1"/><text text-anchor="end" transform="translate(-16,221.63211778059744)" font-family="&quot;Source Sans&quot;, sans-serif" font-size="12px" font-style="normal" font-weight="400" fill="#808495" opacity="1"/><text text-anchor="end" transform="translate(-16,217.62554673058764)" font-family="&quot;Source Sans&quot;, sans-serif" font-size="12px" font-style="normal" font-weight="400" fill="#808495" opacity="1"/><text text-anchor="end" transform="translate(-16,214.2380391752786)" font-family="&quot;Source Sans&quot;, sans-serif" font-size="12px" font-style="normal" font-weight="400" fill="#808495" opacity="1"/><text text-anchor="end" transform="translate(-16,211.30364665820764)" font-family="&quot;Source Sans&quot;, sans-serif" font-size="12px" font-style="normal" font-weight="400" fill="#808495" opacity="1"/><text text-anchor="end" transform="translate(-16,208.71532902237013)" font-family="&quot;Source Sans&quot;, sans-serif" font-size="12px" font-style="normal" font-weight="400" fill="#808495" opacity="1"/><text text-anchor="end" transform="translate(-16,206.39999999999998)" font-family="&quot;Source Sans&quot;, sans-serif" font-size="12px" font-style="normal" font-weight="400" fill="#808495" opacity="1">0.0001</text><text text-anchor="end" transform="translate(-16,191.16788221940257)" font-family="&quot;Source Sans&quot;, sans-serif" font-size="12px" font-style="normal" font-weight="400" fill="#808495" opacity="0">0.0002</text><text text-anchor="end" transform="translate(-16,182.25766451118506)" font-family="&quot;Source Sans&quot;, sans-serif" font-size="12px" font-style="normal" font-weight="400" fill="#808495" opacity="1"/><text text-anchor="end" transform="translate(-16,175.93576443880508)" font-family="&quot;Source Sans&quot;, sans-serif" font-size="12px" font-style="normal" font-weight="400" fill="#808495" opacity="1"/><text text-anchor="end" transform="translate(-16,171.03211778059745)" font-family="&quot;Source Sans&quot;, sans-serif" font-size="12px" font-style="normal" font-weight="400" fill="#808495" opacity="1"/><text text-anchor="end" transform="translate(-16,167.02554673058762)" font-family="&quot;Source Sans&quot;, sans-serif" font-size="12px" font-style="normal" font-weight="400" fill="#808495" opacity="1"/><text text-anchor="end" transform="translate(-16,163.6380391752786)" font-family="&quot;Source Sans&quot;, sans-serif" font-size="12px" font-style="normal" font-weight="400" fill="#808495" opacity="1"/><text text-anchor="end" transform="translate(-16,160.70364665820765)" font-family="&quot;Source Sans&quot;, sans-serif" font-size="12px" font-style="normal" font-weight="400" fill="#808495" opacity="1"/><text text-anchor="end" transform="translate(-16,158.1153290223702)" font-family="&quot;Source Sans&quot;, sans-serif" font-size="12px" font-style="normal" font-weight="400" fill="#808495" opacity="1"/><text text-anchor="end" transform="translate(-16,155.79999999999998)" font-family="&quot;Source Sans&quot;, sans-serif" font-size="12px" font-style="normal" font-weight="400" fill="#808495" opacity="1">0.001</text><text text-anchor="end" transform="translate(-16,140.56788221940255)" font-family="&quot;Source Sans&quot;, sans-serif" font-size="12px" font-style="normal" font-weight="400" fill="#808495" opacity="0">0.002</text><text text-anchor="end" transform="translate(-16,131.6576645111851)" font-family="&quot;Source Sans&quot;, sans-serif" font-size="12px" font-style="normal" font-weight="400" fill="#808495" opacity="1"/><text text-anchor="end" transform="translate(-16,125.3357644388051)" font-family="&quot;Source Sans&quot;, sans-serif" font-size="12px" font-style="normal" font-weight="400" fill="#808495" opacity="1"/><text text-anchor="end" transform="translate(-16,120.43211778059745)" font-family="&quot;Source Sans&quot;, sans-serif" font-size="12px" font-style="normal" font-weight="400" fill="#808495" opacity="1"/><text text-anchor="end" transform="translate(-16,116.42554673058763)" font-family="&quot;Source Sans&quot;, sans-serif" font-size="12px" font-style="normal" font-weight="400" fill="#808495" opacity="1"/><text text-anchor="end" transform="translate(-16,113.03803917527858)" font-family="&quot;Source Sans&quot;, sans-serif" font-size="12px" font-style="normal" font-weight="400" fill="#808495" opacity="1"/><text text-anchor="end" transform="translate(-16,110.10364665820765)" font-family="&quot;Source Sans&quot;, sans-serif" font-size="12px" font-style="normal" font-weight="400" fill="#808495" opacity="1"/><text text-anchor="end" transform="translate(-16,107.51532902237017)" font-family="&quot;Source Sans&quot;, sans-serif" font-size="12px" font-style="normal" font-weight="400" fill="#808495" opacity="1"/><text text-anchor="end" transform="translate(-16,105.19999999999997)" font-family="&quot;Source Sans&quot;, sans-serif" font-size="12px" font-style="normal" font-weight="400" fill="#808495" opacity="1">0.01</text><text text-anchor="end" transform="translate(-16,89.96788221940255)" font-family="&quot;Source Sans&quot;, sans-serif" font-size="12px" font-style="normal" font-weight="400" fill="#808495" opacity="0">0.02</text><text text-anchor="end" transform="translate(-16,81.05766451118507)" font-family="&quot;Source Sans&quot;, sans-serif" font-size="12px" font-style="normal" font-weight="400" fill="#808495" opacity="1"/><text text-anchor="end" transform="translate(-16,74.73576443880512)" font-family="&quot;Source Sans&quot;, sans-serif" font-size="12px" font-style="normal" font-weight="400" fill="#808495" opacity="1"/><text text-anchor="end" transform="translate(-16,69.83211778059743)" font-family="&quot;Source Sans&quot;, sans-serif" font-size="12px" font-style="normal" font-weight="400" fill="#808495" opacity="1"/><text text-anchor="end" transform="translate(-16,65.82554673058765)" font-family="&quot;Source Sans&quot;, sans-serif" font-size="12px" font-style="normal" font-weight="400" fill="#808495" opacity="1"/><text text-anchor="end" transform="translate(-16,62.438039175278625)" font-family="&quot;Source Sans&quot;, sans-serif" font-size="12px" font-style="normal" font-weight="400" fill="#808495" opacity="1"/><text text-anchor="end" transform="translate(-16,59.50364665820767)" font-family="&quot;Source Sans&quot;, sans-serif" font-size="12px" font-style="normal" font-weight="400" fill="#808495" opacity="1"/><text text-anchor="end" transform="translate(-16,56.915329022370145)" font-family="&quot;Source Sans&quot;, sans-serif" font-size="12px" font-style="normal" font-weight="400" fill="#808495" opacity="1"/><text text-anchor="end" transform="translate(-16,54.59999999999999)" font-family="&quot;Source Sans&quot;, sans-serif" font-size="12px" font-style="normal" font-weight="400" fill="#808495" opacity="1">0.1</text><text text-anchor="end" transform="translate(-16,39.367882219402546)" font-family="&quot;Source Sans&quot;, sans-serif" font-size="12px" font-style="normal" font-weight="400" fill="#808495" opacity="0">0.2</text><text text-anchor="end" transform="translate(-16,30.457664511185072)" font-family="&quot;Source Sans&quot;, sans-serif" font-size="12px" font-style="normal" font-weight="400" fill="#808495" opacity="1"/><text text-anchor="end" transform="translate(-16,24.135764438805097)" font-family="&quot;Source Sans&quot;, sans-serif" font-size="12px" font-style="normal" font-weight="400" fill="#808495" opacity="1"/><text text-anchor="end" transform="translate(-16,19.232117780597445)" font-family="&quot;Source Sans&quot;, sans-serif" font-size="12px" font-style="normal" font-weight="400" fill="#808495" opacity="1"/><text text-anchor="end" transform="translate(-16,15.225546730587627)" font-family="&quot;Source Sans&quot;, sans-serif" font-size="12px" font-style="normal" font-weight="400" fill="#808495" opacity="1"/><text text-anchor="end" transform="translate(-16,11.838039175278634)" font-family="&quot;Source Sans&quot;, sans-serif" font-size="12px" font-style="normal" font-weight="400" fill="#808495" opacity="1"/><text text-anchor="end" transform="translate(-16,8.90364665820768)" font-family="&quot;Source Sans&quot;, sans-serif" font-size="12px" font-style="normal" font-weight="400" fill="#808495" opacity="1"/><text text-anchor="end" transform="translate(-16,6.315329022370184)" font-family="&quot;Source Sans&quot;, sans-serif" font-size="12px" font-style="normal" font-weight="400" fill="#808495" opacity="1"/><text text-anchor="end" transform="translate(-16,8)" font-family="&quot;Source Sans&quot;, sans-serif" font-size="12px" font-style="normal" font-weight="400" fill="#808495" opacity="1">1</text></g><g class="mark-text role-axis-title" pointer-events="none"><text text-anchor="middle" transform="translate(-70.77619934082031,126.5) rotate(-90) translate(0,-3)" font-family="&quot;Source Sans&quot;, sans-serif" font-size="14px" font-style="normal" font-weight="400" fill="#808495" opacity="1">False Positive Ratio</text></g></g><path class="foreground" aria-hidden="true" d="" pointer-events="none" display="none"/></g></g><g class="mark-group role-scope layer_0_pathgroup" role="graphics-object" aria-roledescription="group mark container"><g transform="translate(0,0)"><path class="background" aria-hidden="true" d="M0,0h311.734375v253h-311.734375Z"/><g><g class="mark-line role-mark layer_0_marks" role="graphics-object" aria-roledescription="line mark container"><path aria-label="Number of Validated Messages: 2; False Positive Ratio: 0.0000305173452944; system_type: Average Error; num_validation_messages: 2; false_positive_rate: 0.0000305173452944" role="graphics-symbol" aria-roledescription="line mark" d="M0,228.482L25.978,213.25L51.956,198.019L77.934,182.788L103.911,167.558L129.889,152.332L155.867,137.11L181.845,121.9L207.823,106.71L233.801,91.564L259.779,76.503L285.757,61.611L311.734,47.055" stroke="#0068c9" stroke-width="2"/></g></g><path class="foreground" aria-hidden="true" d="" display="none"/></g><g transform="translate(0,0)"><path class="background" aria-hidden="true" d="M0,0h311.734375v253h-311.734375Z"/><g><g class="mark-line role-mark layer_0_marks" role="graphics-object" aria-roledescription="line mark container"><path aria-label="Number of Validated Messages: 2; False Positive Ratio: 0.061640406164; system_type: RMID; num_validation_messages: 2; false_positive_rate: 0.061640406164" role="graphics-symbol" aria-roledescription="line mark" d="M0,61.233L25.978,46.691L51.956,32.793L77.934,20.271L103.911,9.901L129.889,3.088L155.867,0.378L181.845,0.007L207.823,0L233.801,0L259.779,0L285.757,0L311.734,0" stroke="#83c9ff" stroke-width="2"/></g></g><path class="foreground" aria-hidden="true" d="" display="none"/></g><g transform="translate(0,0)"><path class="background" aria-hidden="true" d="M0,0h311.734375v253h-311.734375Z"/><g><g class="mark-line role-mark layer_0_marks" role="graphics-object" aria-roledescription="line mark container"><path aria-label="Number of Validated Messages: 2; False Positive Ratio: 0.00002520000252; system_type: RSID; num_validation_messages: 2; false_positive_rate: 0.00002520000252" role="graphics-symbol" aria-roledescription="line mark" d="M0,232.689L25.978,213.626L51.956,196.433L77.934,183.906L103.911,167.783L129.889,152.697L155.867,137.612L181.845,120.542L207.823,108.36L233.801,95.6L259.779,78.369L285.757,62.355L311.734,47.1" stroke="#ff2b2b" stroke-width="2"/></g></g><path class="foreground" aria-hidden="true" d="" display="none"/></g></g><g class="mark-symbol role-mark layer_1_marks" role="graphics-object" aria-roledescription="symbol mark container"><path aria-label="Number of Validated Messages: 2; False Positive Ratio: 0.0000305173452944; system_type: Average Error; num_validation_messages: 2; false_positive_rate: 0.0000305173452944" role="graphics-symbol" aria-roledescription="point" transform="translate(0,228.48193436784092)" d="M2.739,0A2.739,2.739,0,1,1,-2.739,0A2.739,2.739,0,1,1,2.739,0" fill="#0068c9" stroke-width="2" opacity="1"/><path aria-label="Number of Validated Messages: 4; False Positive Ratio: 0.0000610337592803; system_type: Average Error; num_validation_messages: 4; false_positive_rate: 0.0000610337592803" role="graphics-symbol" aria-roledescription="point" transform="translate(25.977864583333336,213.25015190372272)" d="M2.739,0A2.739,2.739,0,1,1,-2.739,0A2.739,2.739,0,1,1,2.739,0" fill="#0068c9" stroke-width="2" opacity="1"/><path aria-label="Number of Validated Messages: 8; False Positive Ratio: 0.000122063793441; system_type: Average Error; num_validation_messages: 8; false_positive_rate: 0.000122063793441" role="graphics-symbol" aria-roledescription="point" transform="translate(51.955729166666664,198.01870475097184)" d="M2.739,0A2.739,2.739,0,1,1,-2.739,0A2.739,2.739,0,1,1,2.739,0" fill="#0068c9" stroke-width="2" opacity="1"/><path aria-label="Number of Validated Messages: 16; False Positive Ratio: 0.000244112687312; system_type: Average Error; num_validation_messages: 16; false_positive_rate: 0.000244112687312" role="graphics-symbol" aria-roledescription="point" transform="translate(77.93359375,182.78792820559445)" d="M2.739,0A2.739,2.739,0,1,1,-2.739,0A2.739,2.739,0,1,1,2.739,0" fill="#0068c9" stroke-width="2" opacity="1"/><path aria-label="Number of Validated Messages: 32; False Positive Ratio: 0.00048816578362; system_type: Average Error; num_validation_messages: 32; false_positive_rate: 0.00048816578362" role="graphics-symbol" aria-roledescription="point" transform="translate(103.91145833333334,167.55849281356132)" d="M2.739,0A2.739,2.739,0,1,1,-2.739,0A2.739,2.739,0,1,1,2.739,0" fill="#0068c9" stroke-width="2" opacity="1"/><path aria-label="Number of Validated Messages: 64; False Positive Ratio: 0.000976093261408; system_type: Average Error; num_validation_messages: 64; false_positive_rate: 0.000976093261408" role="graphics-symbol" aria-roledescription="point" transform="translate(129.88932291666666,152.33173948263735)" d="M2.739,0A2.739,2.739,0,1,1,-2.739,0A2.739,2.739,0,1,1,2.739,0" fill="#0068c9" stroke-width="2" opacity="1"/><path aria-label="Number of Validated Messages: 128; False Positive Ratio: 0.00195123376476; system_type: Average Error; num_validation_messages: 128; false_positive_rate: 0.00195123376476" role="graphics-symbol" aria-roledescription="point" transform="translate(155.8671875,137.11034929154167)" d="M2.739,0A2.739,2.739,0,1,1,-2.739,0A2.739,2.739,0,1,1,2.739,0" fill="#0068c9" stroke-width="2" opacity="1"/><path aria-label="Number of Validated Messages: 256; False Positive Ratio: 0.00389866021632; system_type: Average Error; num_validation_messages: 256; false_positive_rate: 0.00389866021632" role="graphics-symbol" aria-roledescription="point" transform="translate(181.84505208333334,121.89968145054779)" d="M2.739,0A2.739,2.739,0,1,1,-2.739,0A2.739,2.739,0,1,1,2.739,0" fill="#0068c9" stroke-width="2" opacity="1"/><path aria-label="Number of Validated Messages: 512; False Positive Ratio: 0.00778212088115; system_type: Average Error; num_validation_messages: 512; false_positive_rate: 0.00778212088115" role="graphics-symbol" aria-roledescription="point" transform="translate(207.82291666666669,106.71044259158296)" d="M2.739,0A2.739,2.739,0,1,1,-2.739,0A2.739,2.739,0,1,1,2.739,0" fill="#0068c9" stroke-width="2" opacity="1"/><path aria-label="Number of Validated Messages: 1024; False Positive Ratio: 0.0155036803569; system_type: Average Error; num_validation_messages: 1024; false_positive_rate: 0.0155036803569" role="graphics-symbol" aria-roledescription="point" transform="translate(233.80078125,91.56399882422404)" d="M2.739,0A2.739,2.739,0,1,1,-2.739,0A2.739,2.739,0,1,1,2.739,0" fill="#0068c9" stroke-width="2" opacity="1"/><path aria-label="Number of Validated Messages: 2048; False Positive Ratio: 0.0307669966092; system_type: Average Error; num_validation_messages: 2048; false_positive_rate: 0.0307669966092" role="graphics-symbol" aria-roledescription="point" transform="translate(259.77864583333337,76.50289375447782)" d="M2.739,0A2.739,2.739,0,1,1,-2.739,0A2.739,2.739,0,1,1,2.739,0" fill="#0068c9" stroke-width="2" opacity="1"/><path aria-label="Number of Validated Messages: 4096; False Positive Ratio: 0.060587385138; system_type: Average Error; num_validation_messages: 4096; false_positive_rate: 0.060587385138" role="graphics-symbol" aria-roledescription="point" transform="translate(285.75651041666663,61.611460204703675)" d="M2.739,0A2.739,2.739,0,1,1,-2.739,0A2.739,2.739,0,1,1,2.739,0" fill="#0068c9" stroke-width="2" opacity="1"/><path aria-label="Number of Validated Messages: 8192; False Positive Ratio: 0.117503939038; system_type: Average Error; num_validation_messages: 8192; false_positive_rate: 0.117503939038" role="graphics-symbol" aria-roledescription="point" transform="translate(311.734375,47.05534726796048)" d="M2.739,0A2.739,2.739,0,1,1,-2.739,0A2.739,2.739,0,1,1,2.739,0" fill="#0068c9" stroke-width="2" opacity="1"/><path aria-label="Number of Validated Messages: 2; False Positive Ratio: 0.061640406164; system_type: RMID; num_validation_messages: 2; false_positive_rate: 0.061640406164" role="graphics-symbol" aria-roledescription="point" transform="translate(0,61.23280611842736)" d="M2.739,0A2.739,2.739,0,1,1,-2.739,0A2.739,2.739,0,1,1,2.739,0" fill="#83c9ff" stroke-width="2" opacity="1"/><path aria-label="Number of Validated Messages: 4; False Positive Ratio: 0.119467511947; system_type: RMID; num_validation_messages: 4; false_positive_rate: 0.119467511947" role="graphics-symbol" aria-roledescription="point" transform="translate(25.977864583333336,46.69115915418755)" d="M2.739,0A2.739,2.739,0,1,1,-2.739,0A2.739,2.739,0,1,1,2.739,0" fill="#83c9ff" stroke-width="2" opacity="1"/><path aria-label="Number of Validated Messages: 8; False Positive Ratio: 0.224859822486; system_type: RMID; num_validation_messages: 8; false_positive_rate: 0.224859822486" role="graphics-symbol" aria-roledescription="point" transform="translate(51.955729166666664,32.793259708043664)" d="M2.739,0A2.739,2.739,0,1,1,-2.739,0A2.739,2.739,0,1,1,2.739,0" fill="#83c9ff" stroke-width="2" opacity="1"/><path aria-label="Number of Validated Messages: 16; False Positive Ratio: 0.397552939755; system_type: RMID; num_validation_messages: 16; false_positive_rate: 0.397552939755" role="graphics-symbol" aria-roledescription="point" transform="translate(77.93359375,20.27061455590516)" d="M2.739,0A2.739,2.739,0,1,1,-2.739,0A2.739,2.739,0,1,1,2.739,0" fill="#83c9ff" stroke-width="2" opacity="1"/><path aria-label="Number of Validated Messages: 32; False Positive Ratio: 0.637273363727; system_type: RMID; num_validation_messages: 32; false_positive_rate: 0.637273363727" role="graphics-symbol" aria-roledescription="point" transform="translate(103.91145833333334,9.901116212814877)" d="M2.739,0A2.739,2.739,0,1,1,-2.739,0A2.739,2.739,0,1,1,2.739,0" fill="#83c9ff" stroke-width="2" opacity="1"/><path aria-label="Number of Validated Messages: 64; False Positive Ratio: 0.868914886891; system_type: RMID; num_validation_messages: 64; false_positive_rate: 0.868914886891" role="graphics-symbol" aria-roledescription="point" transform="translate(129.88932291666666,3.0877517602158946)" d="M2.739,0A2.739,2.739,0,1,1,-2.739,0A2.739,2.739,0,1,1,2.739,0" fill="#83c9ff" stroke-width="2" opacity="1"/><path aria-label="Number of Validated Messages: 128; False Positive Ratio: 0.982929998293; system_type: RMID; num_validation_messages: 128; false_positive_rate: 0.982929998293" role="graphics-symbol" aria-roledescription="point" transform="translate(155.8671875,0.37835696548903586)" d="M2.739,0A2.739,2.739,0,1,1,-2.739,0A2.739,2.739,0,1,1,2.739,0" fill="#83c9ff" stroke-width="2" opacity="1"/><path aria-label="Number of Validated Messages: 256; False Positive Ratio: 0.999692799969; system_type: RMID; num_validation_messages: 256; false_positive_rate: 0.999692799969" role="graphics-symbol" aria-roledescription="point" transform="translate(181.84505208333334,0.006751850213422617)" d="M2.739,0A2.739,2.739,0,1,1,-2.739,0A2.739,2.739,0,1,1,2.739,0" fill="#83c9ff" stroke-width="2" opacity="1"/><path aria-label="Number of Validated Messages: 512; False Positive Ratio: 1; system_type: RMID; num_validation_messages: 512; false_positive_rate: 1" role="graphics-symbol" aria-roledescription="point" transform="translate(207.82291666666669,0)" d="M2.739,0A2.739,2.739,0,1,1,-2.739,0A2.739,2.739,0,1,1,2.739,0" fill="#83c9ff" stroke-width="2" opacity="1"/><path aria-label="Number of Validated Messages: 1024; False Positive Ratio: 1; system_type: RMID; num_validation_messages: 1024; false_positive_rate: 1" role="graphics-symbol" aria-roledescription="point" transform="translate(233.80078125,0)" d="M2.739,0A2.739,2.739,0,1,1,-2.739,0A2.739,2.739,0,1,1,2.739,0" fill="#83c9ff" stroke-width="2" opacity="1"/><path aria-label="Number of Validated Messages: 2048; False Positive Ratio: 1; system_type: RMID; num_validation_messages: 2048; false_positive_rate: 1" role="graphics-symbol" aria-roledescription="point" transform="translate(259.77864583333337,0)" d="M2.739,0A2.739,2.739,0,1,1,-2.739,0A2.739,2.739,0,1,1,2.739,0" fill="#83c9ff" stroke-width="2" opacity="1"/><path aria-label="Number of Validated Messages: 4096; False Positive Ratio: 1; system_type: RMID; num_validation_messages: 4096; false_positive_rate: 1" role="graphics-symbol" aria-roledescription="point" transform="translate(285.75651041666663,0)" d="M2.739,0A2.739,2.739,0,1,1,-2.739,0A2.739,2.739,0,1,1,2.739,0" fill="#83c9ff" stroke-width="2" opacity="1"/><path aria-label="Number of Validated Messages: 8192; False Positive Ratio: 1; system_type: RMID; num_validation_messages: 8192; false_positive_rate: 1" role="graphics-symbol" aria-roledescription="point" transform="translate(311.734375,0)" d="M2.739,0A2.739,2.739,0,1,1,-2.739,0A2.739,2.739,0,1,1,2.739,0" fill="#83c9ff" stroke-width="2" opacity="1"/><path aria-label="Number of Validated Messages: 2; False Positive Ratio: 0.00002520000252; system_type: RSID; num_validation_messages: 2; false_positive_rate: 0.00002520000252" role="graphics-symbol" aria-roledescription="point" transform="translate(0,232.68913043892368)" d="M2.739,0A2.739,2.739,0,1,1,-2.739,0A2.739,2.739,0,1,1,2.739,0" fill="#ff2b2b" stroke-width="2" opacity="1"/><path aria-label="Number of Validated Messages: 4; False Positive Ratio: 0.000060000006; system_type: RSID; num_validation_messages: 4; false_positive_rate: 0.000060000006" role="graphics-symbol" aria-roledescription="point" transform="translate(25.977864583333336,213.62554453305745)" d="M2.739,0A2.739,2.739,0,1,1,-2.739,0A2.739,2.739,0,1,1,2.739,0" fill="#ff2b2b" stroke-width="2" opacity="1"/><path aria-label="Number of Validated Messages: 8; False Positive Ratio: 0.00013120001312; system_type: RSID; num_validation_messages: 8; false_positive_rate: 0.00013120001312" role="graphics-symbol" aria-roledescription="point" transform="translate(51.955729166666664,196.43254574946417)" d="M2.739,0A2.739,2.739,0,1,1,-2.739,0A2.739,2.739,0,1,1,2.739,0" fill="#ff2b2b" stroke-width="2" opacity="1"/><path aria-label="Number of Validated Messages: 16; False Positive Ratio: 0.0002320000232; system_type: RSID; num_validation_messages: 16; false_positive_rate: 0.0002320000232" role="graphics-symbol" aria-roledescription="point" transform="translate(77.93359375,183.90630576699047)" d="M2.739,0A2.739,2.739,0,1,1,-2.739,0A2.739,2.739,0,1,1,2.739,0" fill="#ff2b2b" stroke-width="2" opacity="1"/><path aria-label="Number of Validated Messages: 32; False Positive Ratio: 0.00048320004832; system_type: RSID; num_validation_messages: 32; false_positive_rate: 0.00048320004832" role="graphics-symbol" aria-roledescription="point" transform="translate(103.91145833333334,167.7831753664484)" d="M2.739,0A2.739,2.739,0,1,1,-2.739,0A2.739,2.739,0,1,1,2.739,0" fill="#ff2b2b" stroke-width="2" opacity="1"/><path aria-label="Number of Validated Messages: 64; False Positive Ratio: 0.000960000096; system_type: RSID; num_validation_messages: 64; false_positive_rate: 0.000960000096" role="graphics-symbol" aria-roledescription="point" transform="translate(129.88932291666666,152.69707341066788)" d="M2.739,0A2.739,2.739,0,1,1,-2.739,0A2.739,2.739,0,1,1,2.739,0" fill="#ff2b2b" stroke-width="2" opacity="1"/><path aria-label="Number of Validated Messages: 128; False Positive Ratio: 0.00190720019072; system_type: RSID; num_validation_messages: 128; false_positive_rate: 0.00190720019072" role="graphics-symbol" aria-roledescription="point" transform="translate(155.8671875,137.61194815662682)" d="M2.739,0A2.739,2.739,0,1,1,-2.739,0A2.739,2.739,0,1,1,2.739,0" fill="#ff2b2b" stroke-width="2" opacity="1"/><path aria-label="Number of Validated Messages: 256; False Positive Ratio: 0.00414720041472; system_type: RSID; num_validation_messages: 256; false_positive_rate: 0.00414720041472" role="graphics-symbol" aria-roledescription="point" transform="translate(181.84505208333334,120.54159582183333)" d="M2.739,0A2.739,2.739,0,1,1,-2.739,0A2.739,2.739,0,1,1,2.739,0" fill="#ff2b2b" stroke-width="2" opacity="1"/><path aria-label="Number of Validated Messages: 512; False Positive Ratio: 0.00721920072192; system_type: RSID; num_validation_messages: 512; false_positive_rate: 0.00721920072192" role="graphics-symbol" aria-roledescription="point" transform="translate(207.82291666666669,108.36045067673076)" d="M2.739,0A2.739,2.739,0,1,1,-2.739,0A2.739,2.739,0,1,1,2.739,0" fill="#ff2b2b" stroke-width="2" opacity="1"/><path aria-label="Number of Validated Messages: 1024; False Positive Ratio: 0.0129024012902; system_type: RSID; num_validation_messages: 1024; false_positive_rate: 0.0129024012902" role="graphics-symbol" aria-roledescription="point" transform="translate(233.80078125,95.60007041354669)" d="M2.739,0A2.739,2.739,0,1,1,-2.739,0A2.739,2.739,0,1,1,2.739,0" fill="#ff2b2b" stroke-width="2" opacity="1"/><path aria-label="Number of Validated Messages: 2048; False Positive Ratio: 0.0282624028262; system_type: RSID; num_validation_messages: 2048; false_positive_rate: 0.0282624028262" role="graphics-symbol" aria-roledescription="point" transform="translate(259.77864583333337,78.36882044399538)" d="M2.739,0A2.739,2.739,0,1,1,-2.739,0A2.739,2.739,0,1,1,2.739,0" fill="#ff2b2b" stroke-width="2" opacity="1"/><path aria-label="Number of Validated Messages: 4096; False Positive Ratio: 0.0585728058573; system_type: RSID; num_validation_messages: 4096; false_positive_rate: 0.0585728058573" role="graphics-symbol" aria-roledescription="point" transform="translate(285.75651041666663,62.35458093956834)" d="M2.739,0A2.739,2.739,0,1,1,-2.739,0A2.739,2.739,0,1,1,2.739,0" fill="#ff2b2b" stroke-width="2" opacity="1"/><path aria-label="Number of Validated Messages: 8192; False Positive Ratio: 0.117265911727; system_type: RSID; num_validation_messages: 8192; false_positive_rate: 0.117265911727" role="graphics-symbol" aria-roledescription="point" transform="translate(311.734375,47.09990770485327)" d="M2.739,0A2.739,2.739,0,1,1,-2.739,0A2.739,2.739,0,1,1,2.739,0" fill="#ff2b2b" stroke-width="2" opacity="1"/></g><g class="mark-group role-legend" role="graphics-symbol" aria-roledescription="legend" aria-label="Symbol legend titled 'System Type' for fill color and stroke color with 3 values: Average Error, RMID, RSID"><g transform="translate(0,328)"><path class="background" aria-hidden="true" d="M0,0h226v49h-226Z" pointer-events="none"/><g><g class="mark-group role-legend-entry"><g transform="translate(7,26)"><path class="background" aria-hidden="true" d="M0,0h0v0h0Z" pointer-events="none"/><g><g class="mark-group role-scope" role="graphics-object" aria-roledescription="group mark container"><g transform="translate(0,0)"><path class="background" aria-hidden="true" d="M0,0h96.54204559326172v16h-96.54204559326172Z" pointer-events="none" opacity="1"/><g><g class="mark-symbol role-legend-symbol" pointer-events="none"><path transform="translate(7,7)" d="M5,0A5,5,0,1,1,-5,0A5,5,0,1,1,5,0" fill="#0068c9" stroke="#0068c9" stroke-width="4" opacity="1"/></g><g class="mark-text role-legend-label" pointer-events="none"><text text-anchor="start" transform="translate(18,11)" font-family="&quot;Source Sans&quot;, sans-serif" font-size="14px" font-weight="400" fill="#808495" opacity="1">Average Error</text></g></g><path class="foreground" aria-hidden="true" d="" pointer-events="none" display="none"/></g><g transform="translate(107,0)"><path class="background" aria-hidden="true" d="M0,0h48.438127517700195v16h-48.438127517700195Z" pointer-events="none" opacity="1"/><g><g class="mark-symbol role-legend-symbol" pointer-events="none"><path transform="translate(7,7)" d="M5,0A5,5,0,1,1,-5,0A5,5,0,1,1,5,0" fill="#83c9ff" stroke="#83c9ff" stroke-width="4" opacity="1"/></g><g class="mark-text role-legend-label" pointer-events="none"><text text-anchor="start" transform="translate(18,11)" font-family="&quot;Source Sans&quot;, sans-serif" font-size="14px" font-weight="400" fill="#808495" opacity="1">RMID</text></g></g><path class="foreground" aria-hidden="true" d="" pointer-events="none" display="none"/></g><g transform="translate(166,0)"><path class="background" aria-hidden="true" d="M0,0h45.537841796875v16h-45.537841796875Z" pointer-events="none" opacity="1"/><g><g class="mark-symbol role-legend-symbol" pointer-events="none"><path transform="translate(7,7)" d="M5,0A5,5,0,1,1,-5,0A5,5,0,1,1,5,0" fill="#ff2b2b" stroke="#ff2b2b" stroke-width="4" opacity="1"/></g><g class="mark-text role-legend-label" pointer-events="none"><text text-anchor="start" transform="translate(18,11)" font-family="&quot;Source Sans&quot;, sans-serif" font-size="14px" font-weight="400" fill="#808495" opacity="1">RSID</text></g></g><path class="foreground" aria-hidden="true" d="" pointer-events="none" display="none"/></g></g></g><path class="foreground" aria-hidden="true" d="" pointer-events="none" display="none"/></g></g><g class="mark-text role-legend-title" pointer-events="none"><text text-anchor="start" transform="translate(7,18)" font-family="&quot;Source Sans&quot;, sans-serif" font-size="14px" font-style="normal" font-weight="400" fill="#808495" opacity="1">System Type</text></g></g><path class="foreground" aria-hidden="true" d="" pointer-events="none" display="none"/></g></g></g><path class="foreground" aria-hidden="true" d="" display="none"/></g></g></g></svg>