<svg xmlns="http://www.w3.org/2000/svg" xmlns:xlink="http://www.w3.org/1999/xlink" version="1.1" class="marks" width="399.734375" height="400" viewBox="0 0 399.734375 400"><rect width="399.734375" height="400" fill="#ffffff"/><g fill="none" stroke-miterlimit="10" transform="translate(73,3)"><g class="mark-group role-frame root" role="graphics-object" aria-roledescription="group mark container"><g transform="translate(0,0)"><path class="background" aria-hidden="true" d="M0,0h323.734375v253h-323.734375Z" stroke-width="0"/><g><g class="mark-group role-axis" aria-hidden="true"><g transform="translate(0.5,253.5)"><path class="background" aria-hidden="true" d="M0,0h0v0h0Z" pointer-events="none"/><g><g class="mark-rule role-axis-grid" pointer-events="none"><line transform="translate(0,-253)" x2="0" y2="253" stroke="#e6eaf1" stroke-width="1" opacity="1"/><line transform="translate(27,-253)" x2="0" y2="253" stroke="#e6eaf1" stroke-width="1" opacity="1"/><line transform="translate(54,-253)" x2="0" y2="253" stroke="#e6eaf1" stroke-width="1" opacity="1"/><line transform="translate(81,-253)" x2="0" y2="253" stroke="#e6eaf1" stroke-width="1" opacity="1"/><line transform="translate(108,-253)" x2="0" y2="253" stroke="#e6eaf1" stroke-width="1" opacity="1"/><line transform="translate(135,-253)" x2="0" y2="253" stroke="#e6eaf1" stroke-width="1" opacity="1"/><line transform="translate(162,-253)" x2="0" y2="253" stroke="#e6eaf1" stroke-width="1" opacity="1"/><line transform="translate(189,-253)" x2="0" y2="253" stroke="#e6eaf1" stroke-width="1" opacity="1"/><line transform="translate(216,-253)" x2="0" y2="253" stroke="#e6eaf1" stroke-width="1" opacity="1"/><line transform="translate(243,-253)" x2="0" y2="253" stroke="#e6eaf1" stroke-width="1" opacity="1"/><line transform="translate(270,-253)" x2="0" y2="253" stroke="#e6eaf1" stroke-width="1" opacity="1"/><line transform="translate(297,-253)" x2="0" y2="253" stroke="#e6eaf1" stroke-width="1" opacity="1"/><line transform="translate(324,-253)" x2="0" y2="253" stroke="#e6eaf1" stroke-width="1" opacity="1"/></g></g><path class="foreground" aria-hidden="true" d="" pointer-events="none" display="none"/></g></g><g class="mark-group role-axis" aria-hidden="true"><g transform="translate(0.5,0.5)"><path class="background" aria-hidden="true" d="M0,0h0v0h0Z" pointer-events="none"/><g><g class="mark-rule role-axis-grid" pointer-events="none"><line transform="translate(0,253)" x2="323.734375" y2="0" stroke="#e6eaf1" stroke-width="1" opacity="1"/><line transform="translate(0,228)" x2="323.734375" y2="0" stroke="#e6eaf1" stroke-width="1" opacity="1"/><line transform="translate(0,213)" x2="323.734375" y2="0" stroke="#e6eaf1" stroke-width="1" opacity="1"/><line transform="translate(0,202)" x2="323.734375" y2="0" stroke="#e6eaf1" stroke-width="1" opacity="1"/><line transform="translate(0,194)" x2="323.734375" y2="0" stroke="#e6eaf1" stroke-width="1" opacity="1"/><line transform="translate(0,187)" x2="323.734375" y2="0" stroke="#e6eaf1" stroke-width="1" opacity="1"/><line transform="translate(0,182)" x2="323.734375" y2="0" stroke="#e6eaf1" stroke-width="1" opacity="1"/><line transform="translate(0,177)" x2="323.734375" y2="0" stroke="#e6eaf1" stroke-width="1" opacity="1"/><line transform="translate(0,173)" x2="323.734375" y2="0" stroke="#e6eaf1" stroke-width="1" opacity="1"/><line transform="translate(0,169)" x2="323.734375" y2="0" stroke="#e6eaf1" stroke-width="1" opacity="1"/><line transform="translate(0,143)" x2="323.734375" y2="0" stroke="#e6eaf1" stroke-width="1" opacity="1"/><line transform="translate(0,128)" x2="323.734375" y2="0" stroke="#e6eaf1" stroke-width="1" opacity="1"/><line transform="translate(0,118)" x2="323.734375" y2="0" stroke="#e6eaf1" stroke-width="1" opacity="1"/><line transform="translate(0,110)" x2="323.734375" y2="0" stroke="#e6eaf1" stroke-width="1" opacity="1"/><line transform="translate(0,103)" x2="323.734375" y2="0" stroke="#e6eaf1" stroke-width="1" opacity="1"/><line transform="translate(0,97)" x2="323.734375" y2="0" stroke="#e6eaf1" stroke-width="1" opacity="1"/><line transform="translate(0,93)" x2="323.734375" y2="0" stroke="#e6eaf1" stroke-width="1" opacity="1"/><line transform="translate(0,88)" x2="323.734375" y2="0" stroke="#e6eaf1" stroke-width="1" opacity="1"/><line transform="translate(0,84)" x2="323.734375" y2="0" stroke="#e6eaf1" stroke-width="1" opacity="1"/><line transform="translate(0,59)" x2="323.734375" y2="0" stroke="#e6eaf1" stroke-width="1" opacity="1"/><line transform="translate(0,44)" x2="323.734375" y2="0" stroke="#e6eaf1" stroke-width="1" opacity="1"/><line transform="translate(0,34)" x2="323.734375" y2="0" stroke="#e6eaf1" stroke-width="1" opacity="1"/><line transform="translate(0,25)" x2="323.734375" y2="0" stroke="#e6eaf1" stroke-width="1" opacity="1"/><line transform="translate(0,19)" x2="323.734375" y2="0" stroke="#e6eaf1" stroke-width="1" opacity="1"/><line transform="translate(0,13)" x2="323.734375" y2="0" stroke="#e6eaf1" stroke-width="1" opacity="1"/><line transform="translate(0,8)" x2="323.734375" y2="0" stroke="#e6eaf1" stroke-width="1" opacity="1"/><line transform="translate(0,4)" x2="323.734375" y2="0" stroke="#e6eaf1" stroke-width="1" opacity="1"/><line transform="translate(0,0)" x2="323.734375" y2="0" stroke="#e6eaf1" stroke-width="1" opacity="1"/></g></g><path class="foreground" aria-hidden="true" d="" pointer-events="none" display="none"/></g></g><g class="mark-group role-axis" role="graphics-symbol" aria-roledescription="axis" aria-label="X-axis titled 'Number of Validated Messages' for a log scale with values from 2 to 8,192"><g transform="translate(0.5,253.5)"><path class="background" aria-hidden="true" d="M0,0h0v0h0Z" pointer-events="none"/><g><g class="mark-text role-axis-label" pointer-events="none"><text text-anchor="start" transform="translate(-1,25)" font-family="&quot;Source Sans&quot;, sans-serif" font-size="12px" font-style="normal" font-weight="400" fill="#808495" opacity="1">2</text><text text-anchor="middle" transform="translate(26.977864583333336,25)" font-family="&quot;Source Sans&quot;, sans-serif" font-size="12px" font-style="normal" font-weight="400" fill="#808495" opacity="0">4</text><text text-anchor="middle" transform="translate(53.955729166666664,25)" font-family="&quot;Source Sans&quot;, sans-serif" font-size="12px" font-style="normal" font-weight="400" fill="#808495" opacity="1">8</text><text text-anchor="middle" transform="translate(80.93359375,25)" font-family="&quot;Source Sans&quot;, sans-serif" font-size="12px" font-style="normal" font-weight="400" fill="#808495" opacity="0">16</text><text text-anchor="middle" transform="translate(107.91145833333334,25)" font-family="&quot;Source Sans&quot;, sans-serif" font-size="12px" font-style="normal" font-weight="400" fill="#808495" opacity="1">32</text><text text-anchor="middle" transform="translate(134.88932291666666,25)" font-family="&quot;Source Sans&quot;, sans-serif" font-size="12px" font-style="normal" font-weight="400" fill="#808495" opacity="0">64</text><text text-anchor="middle" transform="translate(161.8671875,25)" font-family="&quot;Source Sans&quot;, sans-serif" font-size="12px" font-style="normal" font-weight="400" fill="#808495" opacity="1">128</text><text text-anchor="middle" transform="translate(188.84505208333334,25)" font-family="&quot;Source Sans&quot;, sans-serif" font-size="12px" font-style="normal" font-weight="400" fill="#808495" opacity="0">256</text><text text-anchor="middle" transform="translate(215.82291666666669,25)" font-family="&quot;Source Sans&quot;, sans-serif" font-size="12px" font-style="normal" font-weight="400" fill="#808495" opacity="1">512</text><text text-anchor="middle" transform="translate(242.80078125,25)" font-family="&quot;Source Sans&quot;, sans-serif" font-size="12px" font-style="normal" font-weight="400" fill="#808495" opacity="0">1,024</text><text text-anchor="middle" transform="translate(269.77864583333337,25)" font-family="&quot;Source Sans&quot;, sans-serif" font-size="12px" font-style="normal" font-weight="400" fill="#808495" opacity="1">2,048</text><text text-anchor="middle" transform="translate(296.75651041666663,25)" font-family="&quot;Source Sans&quot;, sans-serif" font-size="12px" font-style="normal" font-weight="400" fill="#808495" opacity="0">4,096</text><text text-anchor="end" transform="translate(324.734375,25)" font-family="&quot;Source Sans&quot;, sans-serif" font-size="12px" font-style="normal" font-weight="400" fill="#808495" opacity="1">8,192</text></g><g class="mark-text role-axis-title" pointer-events="none"><text text-anchor="middle" transform="translate(161.8671875,54)" font-family="&quot;Source Sans&quot;, sans-serif" font-size="14px" font-style="normal" font-weight="400" fill="#808495" opacity="1">Number of Validated Messages</text></g></g><path class="foreground" aria-hidden="true" d="" pointer-events="none" display="none"/></g></g><g class="mark-group role-axis" role="graphics-symbol" aria-roledescription="axis" aria-label="Y-axis titled 'False Positive Ratio' for a log scale with values from 0.001 to 1"><g transform="translate(0.5,0.5)"><path class="background" aria-hidden="true" d="M0,0h0v0h0Z" pointer-events="none"/><g><g class="mark-text role-axis-label" pointer-events="none"><text text-anchor="end" transform="translate(-16,251)" font-family="&quot;Source Sans&quot;, sans-serif" font-size="12px" font-style="normal" font-weight="400" fill="#808495" opacity="1">0.001</text><text text-anchor="end" transform="translate(-16,231.6131370323376)" font-family="&quot;Source Sans&quot;, sans-serif" font-size="12px" font-style="normal" font-weight="400" fill="#808495" opacity="0">0.002</text><text text-anchor="end" transform="translate(-16,216.76277418530847)" font-family="&quot;Source Sans&quot;, sans-serif" font-size="12px" font-style="normal" font-weight="400" fill="#808495" opacity="1">0.003</text><text text-anchor="end" transform="translate(-16,206.22627406467518)" font-family="&quot;Source Sans&quot;, sans-serif" font-size="12px" font-style="normal" font-weight="400" fill="#808495" opacity="1"/><text text-anchor="end" transform="translate(-16,198.05352963432907)" font-family="&quot;Source Sans&quot;, sans-serif" font-size="12px" font-style="normal" font-weight="400" fill="#808495" opacity="1"/><text text-anchor="end" transform="translate(-16,191.37591121764606)" font-family="&quot;Source Sans&quot;, sans-serif" font-size="12px" font-style="normal" font-weight="400" fill="#808495" opacity="1"/><text text-anchor="end" transform="translate(-16,185.73006529213097)" font-family="&quot;Source Sans&quot;, sans-serif" font-size="12px" font-style="normal" font-weight="400" fill="#808495" opacity="1"/><text text-anchor="end" transform="translate(-16,180.83941109701277)" font-family="&quot;Source Sans&quot;, sans-serif" font-size="12px" font-style="normal" font-weight="400" fill="#808495" opacity="1"/><text text-anchor="end" transform="translate(-16,176.52554837061695)" font-family="&quot;Source Sans&quot;, sans-serif" font-size="12px" font-style="normal" font-weight="400" fill="#808495" opacity="1"/><text text-anchor="end" transform="translate(-16,172.66666666666666)" font-family="&quot;Source Sans&quot;, sans-serif" font-size="12px" font-style="normal" font-weight="400" fill="#808495" opacity="0">0.01</text><text text-anchor="end" transform="translate(-16,147.27980369900425)" font-family="&quot;Source Sans&quot;, sans-serif" font-size="12px" font-style="normal" font-weight="400" fill="#808495" opacity="1">0.02</text><text text-anchor="end" transform="translate(-16,132.42944085197516)" font-family="&quot;Source Sans&quot;, sans-serif" font-size="12px" font-style="normal" font-weight="400" fill="#808495" opacity="0">0.03</text><text text-anchor="end" transform="translate(-16,121.89294073134184)" font-family="&quot;Source Sans&quot;, sans-serif" font-size="12px" font-style="normal" font-weight="400" fill="#808495" opacity="1"/><text text-anchor="end" transform="translate(-16,113.72019630099575)" font-family="&quot;Source Sans&quot;, sans-serif" font-size="12px" font-style="normal" font-weight="400" fill="#808495" opacity="1"/><text text-anchor="end" transform="translate(-16,107.04257788431272)" font-family="&quot;Source Sans&quot;, sans-serif" font-size="12px" font-style="normal" font-weight="400" fill="#808495" opacity="1"/><text text-anchor="end" transform="translate(-16,101.39673195879769)" font-family="&quot;Source Sans&quot;, sans-serif" font-size="12px" font-style="normal" font-weight="400" fill="#808495" opacity="1"/><text text-anchor="end" transform="translate(-16,96.50607776367943)" font-family="&quot;Source Sans&quot;, sans-serif" font-size="12px" font-style="normal" font-weight="400" fill="#808495" opacity="1"/><text text-anchor="end" transform="translate(-16,92.1922150372836)" font-family="&quot;Source Sans&quot;, sans-serif" font-size="12px" font-style="normal" font-weight="400" fill="#808495" opacity="1"/><text text-anchor="end" transform="translate(-16,88.33333333333331)" font-family="&quot;Source Sans&quot;, sans-serif" font-size="12px" font-style="normal" font-weight="400" fill="#808495" opacity="1">0.1</text><text text-anchor="end" transform="translate(-16,62.94647036567093)" font-family="&quot;Source Sans&quot;, sans-serif" font-size="12px" font-style="normal" font-weight="400" fill="#808495" opacity="0">0.2</text><text text-anchor="end" transform="translate(-16,48.09610751864179)" font-family="&quot;Source Sans&quot;, sans-serif" font-size="12px" font-style="normal" font-weight="400" fill="#808495" opacity="1">0.3</text><text text-anchor="end" transform="translate(-16,37.559607398008495)" font-family="&quot;Source Sans&quot;, sans-serif" font-size="12px" font-style="normal" font-weight="400" fill="#808495" opacity="1"/><text text-anchor="end" transform="translate(-16,29.38686296766241)" font-family="&quot;Source Sans&quot;, sans-serif" font-size="12px" font-style="normal" font-weight="400" fill="#808495" opacity="1"/><text text-anchor="end" transform="translate(-16,22.709244550979378)" font-family="&quot;Source Sans&quot;, sans-serif" font-size="12px" font-style="normal" font-weight="400" fill="#808495" opacity="1"/><text text-anchor="end" transform="translate(-16,17.06339862546435)" font-family="&quot;Source Sans&quot;, sans-serif" font-size="12px" font-style="normal" font-weight="400" fill="#808495" opacity="1"/><text text-anchor="end" transform="translate(-16,12.172744430346086)" font-family="&quot;Source Sans&quot;, sans-serif" font-size="12px" font-style="normal" font-weight="400" fill="#808495" opacity="1"/><text text-anchor="end" transform="translate(-16,7.85888170395026)" font-family="&quot;Source Sans&quot;, sans-serif" font-size="12px" font-style="normal" font-weight="400" fill="#808495" opacity="1"/><text text-anchor="end" transform="translate(-16,8)" font-family="&quot;Source Sans&quot;, sans-serif" font-size="12px" font-style="normal" font-weight="400" fill="#808495" opacity="0">1</text></g><g class="mark-text role-axis-title" pointer-events="none"><text text-anchor="middle" transform="translate(-58.84765625,126.5) rotate(-90) translate(0,-3)" font-family="&quot;Source Sans&quot;, sans-serif" font-size="14px" font-style="normal" font-weight="400" fill="#808495" opacity="1">False Positive Ratio</text></g></g><path class="foreground" aria-hidden="true" d="" pointer-events="none" display="none"/></g></g><g class="mark-group role-scope layer_0_pathgroup" role="graphics-object" aria-roledescription="group mark container"><g transform="translate(0,0)"><path class="background" aria-hidden="true" d="M0,0h323.734375v253h-323.734375Z"/><g><g class="mark-line role-mark layer_0_marks" role="graphics-object" aria-roledescription="line mark container"><path aria-label="Number of Validated Messages: 2; False Positive Ratio: 0.00779724121094; system_type: Average Error; num_validation_messages: 2; false_positive_rate: 0.00779724121094" role="graphics-symbol" aria-roledescription="line mark" d="M0,177.78L26.978,152.536L53.956,127.435L80.934,102.617L107.911,78.359L134.889,55.194L161.867,34.107L188.845,16.758L215.823,5.303L242.801,0.672L269.779,0.012L296.757,0L323.734,0" stroke="#0068c9" stroke-width="2"/></g></g><path class="foreground" aria-hidden="true" d="" display="none"/></g><g transform="translate(0,0)"><path class="background" aria-hidden="true" d="M0,0h323.734375v253h-323.734375Z"/><g><g class="mark-line role-mark layer_0_marks" role="graphics-object" aria-roledescription="line mark container"><path aria-label="Number of Validated Messages: 2; False Positive Ratio: 0.234009023401; system_type: RMID; num_validation_messages: 2; false_positive_rate: 0.234009023401" role="graphics-symbol" aria-roledescription="line mark" d="M0,53.195L26.978,32.339L53.956,15.41L80.934,4.613L107.911,0.514L134.889,0.007L161.867,0L188.845,0L215.823,0L242.801,0L269.779,0L296.757,0L323.734,0" stroke="#83c9ff" stroke-width="2"/></g></g><path class="foreground" aria-hidden="true" d="" display="none"/></g><g transform="translate(0,0)"><path class="background" aria-hidden="true" d="M0,0h323.734375v253h-323.734375Z"/><g><g class="mark-line role-mark layer_0_marks" role="graphics-object" aria-roledescription="line mark container"><path aria-label="Number of Validated Messages: 2; False Positive Ratio: 0.00781860078186; system_type: RSID; num_validation_messages: 2; false_positive_rate: 0.00781860078186" role="graphics-symbol" aria-roledescription="line mark" d="M0,177.679L26.978,152.794L53.956,127.244L80.934,102.663L107.911,78.236L134.889,55.199L161.867,34.278L188.845,16.771L215.823,5.225L242.801,0.603L269.779,0.015L296.757,0.004L323.734,0" stroke="#ff2b2b" stroke-width="2"/></g></g><path class="foreground" aria-hidden="true" d="" display="none"/></g></g><g class="mark-symbol role-mark layer_1_marks" role="graphics-object" aria-roledescription="symbol mark container"><path aria-label="Number of Validated Messages: 2; False Positive Ratio: 0.00779724121094; system_type: Average Error; num_validation_messages: 2; false_positive_rate: 0.00779724121094" role="graphics-symbol" aria-roledescription="point" transform="translate(0,177.77964490457117)" d="M2.739,0A2.739,2.739,0,1,1,-2.739,0A2.739,2.739,0,1,1,2.739,0" fill="#0068c9" stroke-width="2" opacity="1"/><path aria-label="Number of Validated Messages: 4; False Positive Ratio: 0.0155336854514; system_type: Average Error; num_validation_messages: 4; false_positive_rate: 0.0155336854514" role="graphics-symbol" aria-roledescription="point" transform="translate(26.977864583333336,152.5358499364808)" d="M2.739,0A2.739,2.739,0,1,1,-2.739,0A2.739,2.739,0,1,1,2.739,0" fill="#0068c9" stroke-width="2" opacity="1"/><path aria-label="Number of Validated Messages: 8; False Positive Ratio: 0.030826075519; system_type: Average Error; num_validation_messages: 8; false_positive_rate: 0.030826075519" role="graphics-symbol" aria-roledescription="point" transform="translate(53.955729166666664,127.43456192629525)" d="M2.739,0A2.739,2.739,0,1,1,-2.739,0A2.739,2.739,0,1,1,2.739,0" fill="#0068c9" stroke-width="2" opacity="1"/><path aria-label="Number of Validated Messages: 16; False Positive Ratio: 0.0607019041062; system_type: Average Error; num_validation_messages: 16; false_positive_rate: 0.0607019041062" role="graphics-symbol" aria-roledescription="point" transform="translate(80.93359375,102.61660482723242)" d="M2.739,0A2.739,2.739,0,1,1,-2.739,0A2.739,2.739,0,1,1,2.739,0" fill="#0068c9" stroke-width="2" opacity="1"/><path aria-label="Number of Validated Messages: 32; False Positive Ratio: 0.11771908705; system_type: Average Error; num_validation_messages: 32; false_positive_rate: 0.11771908705" role="graphics-symbol" aria-roledescription="point" transform="translate(107.91145833333334,78.35857933582999)" d="M2.739,0A2.739,2.739,0,1,1,-2.739,0A2.739,2.739,0,1,1,2.739,0" fill="#0068c9" stroke-width="2" opacity="1"/><path aria-label="Number of Validated Messages: 64; False Positive Ratio: 0.221580390645; system_type: Average Error; num_validation_messages: 64; false_positive_rate: 0.221580390645" role="graphics-symbol" aria-roledescription="point" transform="translate(134.88932291666666,55.193525035207415)" d="M2.739,0A2.739,2.739,0,1,1,-2.739,0A2.739,2.739,0,1,1,2.739,0" fill="#0068c9" stroke-width="2" opacity="1"/><path aria-label="Number of Validated Messages: 128; False Positive Ratio: 0.394062911771; system_type: Average Error; num_validation_messages: 128; false_positive_rate: 0.394062911771" role="graphics-symbol" aria-roledescription="point" transform="translate(161.8671875,34.10730426595381)" d="M2.739,0A2.739,2.739,0,1,1,-2.739,0A2.739,2.739,0,1,1,2.739,0" fill="#0068c9" stroke-width="2" opacity="1"/><path aria-label="Number of Validated Messages: 256; False Positive Ratio: 0.632840245108; system_type: Average Error; num_validation_messages: 256; false_positive_rate: 0.632840245108" role="graphics-symbol" aria-roledescription="point" transform="translate(188.84505208333334,16.75753173712421)" d="M2.739,0A2.739,2.739,0,1,1,-2.739,0A2.739,2.739,0,1,1,2.739,0" fill="#0068c9" stroke-width="2" opacity="1"/><path aria-label="Number of Validated Messages: 512; False Positive Ratio: 0.865193714388; system_type: Average Error; num_validation_messages: 512; false_positive_rate: 0.865193714388" role="graphics-symbol" aria-roledescription="point" transform="translate(215.82291666666669,5.303440341085299)" d="M2.739,0A2.739,2.739,0,1,1,-2.739,0A2.739,2.739,0,1,1,2.739,0" fill="#0068c9" stroke-width="2" opacity="1"/><path aria-label="Number of Validated Messages: 1024; False Positive Ratio: 0.981827265359; system_type: Average Error; num_validation_messages: 1024; false_positive_rate: 0.981827265359" role="graphics-symbol" aria-roledescription="point" transform="translate(242.80078125,0.671707553678752)" d="M2.739,0A2.739,2.739,0,1,1,-2.739,0A2.739,2.739,0,1,1,2.739,0" fill="#0068c9" stroke-width="2" opacity="1"/><path aria-label="Number of Validated Messages: 2048; False Positive Ratio: 0.999669751716; system_type: Average Error; num_validation_messages: 2048; false_positive_rate: 0.999669751716" role="graphics-symbol" aria-roledescription="point" transform="translate(269.77864583333337,0.012097506669205615)" d="M2.739,0A2.739,2.739,0,1,1,-2.739,0A2.739,2.739,0,1,1,2.739,0" fill="#0068c9" stroke-width="2" opacity="1"/><path aria-label="Number of Validated Messages: 4096; False Positive Ratio: 0.999999890936; system_type: Average Error; num_validation_messages: 4096; false_positive_rate: 0.999999890936" role="graphics-symbol" aria-roledescription="point" transform="translate(296.75651041666663,0.000003994521272976392)" d="M2.739,0A2.739,2.739,0,1,1,-2.739,0A2.739,2.739,0,1,1,2.739,0" fill="#0068c9" stroke-width="2" opacity="1"/><path aria-label="Number of Validated Messages: 8192; False Positive Ratio: 1; system_type: Average Error; num_validation_messages: 8192; false_positive_rate: 1" role="graphics-symbol" aria-roledescription="point" transform="translate(323.734375,4.4941828036826337e-13)" d="M2.739,0A2.739,2.739,0,1,1,-2.739,0A2.739,2.739,0,1,1,2.739,0" fill="#0068c9" stroke-width="2" opacity="1"/><path aria-label="Number of Validated Messages: 2; False Positive Ratio: 0.234009023401; system_type: RMID; num_validation_messages: 2; false_positive_rate: 0.234009023401" role="graphics-symbol" aria-roledescription="point" transform="translate(0,53.194717049822934)" d="M2.739,0A2.739,2.739,0,1,1,-2.739,0A2.739,2.739,0,1,1,2.739,0" fill="#83c9ff" stroke-width="2" opacity="1"/><path aria-label="Number of Validated Messages: 4; False Positive Ratio: 0.413555041356; system_type: RMID; num_validation_messages: 4; false_positive_rate: 0.413555041356" role="graphics-symbol" aria-roledescription="point" transform="translate(26.977864583333336,32.33902339988071)" d="M2.739,0A2.739,2.739,0,1,1,-2.739,0A2.739,2.739,0,1,1,2.739,0" fill="#83c9ff" stroke-width="2" opacity="1"/><path aria-label="Number of Validated Messages: 8; False Positive Ratio: 0.656549465655; system_type: RMID; num_validation_messages: 8; false_positive_rate: 0.656549465655" role="graphics-symbol" aria-roledescription="point" transform="translate(53.955729166666664,15.410444863601539)" d="M2.739,0A2.739,2.739,0,1,1,-2.739,0A2.739,2.739,0,1,1,2.739,0" fill="#83c9ff" stroke-width="2" opacity="1"/><path aria-label="Number of Validated Messages: 16; False Positive Ratio: 0.881649488165; system_type: RMID; num_validation_messages: 16; false_positive_rate: 0.881649488165" role="graphics-symbol" aria-roledescription="point" transform="translate(80.93359375,4.613374063442009)" d="M2.739,0A2.739,2.739,0,1,1,-2.739,0A2.739,2.739,0,1,1,2.739,0" fill="#83c9ff" stroke-width="2" opacity="1"/><path aria-label="Number of Validated Messages: 32; False Positive Ratio: 0.986060198606; system_type: RMID; num_validation_messages: 32; false_positive_rate: 0.986060198606" role="graphics-symbol" aria-roledescription="point" transform="translate(107.91145833333334,0.5141441318907088)" d="M2.739,0A2.739,2.739,0,1,1,-2.739,0A2.739,2.739,0,1,1,2.739,0" fill="#83c9ff" stroke-width="2" opacity="1"/><path aria-label="Number of Validated Messages: 64; False Positive Ratio: 0.999820799982; system_type: RMID; num_validation_messages: 64; false_positive_rate: 0.999820799982" role="graphics-symbol" aria-roledescription="point" transform="translate(134.88932291666666,0.006563878631725029)" d="M2.739,0A2.739,2.739,0,1,1,-2.739,0A2.739,2.739,0,1,1,2.739,0" fill="#83c9ff" stroke-width="2" opacity="1"/><path aria-label="Number of Validated Messages: 128; False Positive Ratio: 1; system_type: RMID; num_validation_messages: 128; false_positive_rate: 1" role="graphics-symbol" aria-roledescription="point" transform="translate(161.8671875,0)" d="M2.739,0A2.739,2.739,0,1,1,-2.739,0A2.739,2.739,0,1,1,2.739,0" fill="#83c9ff" stroke-width="2" opacity="1"/><path aria-label="Number of Validated Messages: 256; False Positive Ratio: 1; system_type: RMID; num_validation_messages: 256; false_positive_rate: 1" role="graphics-symbol" aria-roledescription="point" transform="translate(188.84505208333334,0)" d="M2.739,0A2.739,2.739,0,1,1,-2.739,0A2.739,2.739,0,1,1,2.739,0" fill="#83c9ff" stroke-width="2" opacity="1"/><path aria-label="Number of Validated Messages: 512; False Positive Ratio: 1; system_type: RMID; num_validation_messages: 512; false_positive_rate: 1" role="graphics-symbol" aria-roledescription="point" transform="translate(215.82291666666669,0)" d="M2.739,0A2.739,2.739,0,1,1,-2.739,0A2.739,2.739,0,1,1,2.739,0" fill="#83c9ff" stroke-width="2" opacity="1"/><path aria-label="Number of Validated Messages: 1024; False Positive Ratio: 1; system_type: RMID; num_validation_messages: 1024; false_positive_rate: 1" role="graphics-symbol" aria-roledescription="point" transform="translate(242.80078125,0)" d="M2.739,0A2.739,2.739,0,1,1,-2.739,0A2.739,2.739,0,1,1,2.739,0" fill="#83c9ff" stroke-width="2" opacity="1"/><path aria-label="Number of Validated Messages: 2048; False Positive Ratio: 1; system_type: RMID; num_validation_messages: 2048; false_positive_rate: 1" role="graphics-symbol" aria-roledescription="point" transform="translate(269.77864583333337,0)" d="M2.739,0A2.739,2.739,0,1,1,-2.739,0A2.739,2.739,0,1,1,2.739,0" fill="#83c9ff" stroke-width="2" opacity="1"/><path aria-label="Number of Validated Messages: 4096; False Positive Ratio: 1; system_type: RMID; num_validation_messages: 4096; false_positive_rate: 1" role="graphics-symbol" aria-roledescription="point" transform="translate(296.75651041666663,0)" d="M2.739,0A2.739,2.739,0,1,1,-2.739,0A2.739,2.739,0,1,1,2.739,0" fill="#83c9ff" stroke-width="2" opacity="1"/><path aria-label="Number of Validated Messages: 8192; False Positive Ratio: 1; system_type: RMID; num_validation_messages: 8192; false_positive_rate: 1" role="graphics-symbol" aria-roledescription="point" transform="translate(323.734375,0)" d="M2.739,0A2.739,2.739,0,1,1,-2.739,0A2.739,2.739,0,1,1,2.739,0" fill="#83c9ff" stroke-width="2" opacity="1"/><path aria-label="Number of Validated Messages: 2; False Positive Ratio: 0.00781860078186; system_type: RSID; num_validation_messages: 2; false_positive_rate: 0.00781860078186" role="graphics-symbol" aria-roledescription="point" transform="translate(0,177.67945107820185)" d="M2.739,0A2.739,2.739,0,1,1,-2.739,0A2.739,2.739,0,1,1,2.739,0" fill="#ff2b2b" stroke-width="2" opacity="1"/><path aria-label="Number of Validated Messages: 4; False Positive Ratio: 0.0154244015424; system_type: RSID; num_validation_messages: 4; false_positive_rate: 0.0154244015424" role="graphics-symbol" aria-roledescription="point" transform="translate(26.977864583333336,152.79443145517874)" d="M2.739,0A2.739,2.739,0,1,1,-2.739,0A2.739,2.739,0,1,1,2.739,0" fill="#ff2b2b" stroke-width="2" opacity="1"/><path aria-label="Number of Validated Messages: 8; False Positive Ratio: 0.0309867030987; system_type: RSID; num_validation_messages: 8; false_positive_rate: 0.0309867030987" role="graphics-symbol" aria-roledescription="point" transform="translate(53.955729166666664,127.24421038405616)" d="M2.739,0A2.739,2.739,0,1,1,-2.739,0A2.739,2.739,0,1,1,2.739,0" fill="#ff2b2b" stroke-width="2" opacity="1"/><path aria-label="Number of Validated Messages: 16; False Positive Ratio: 0.0606256060626; system_type: RSID; num_validation_messages: 16; false_positive_rate: 0.0606256060626" role="graphics-symbol" aria-roledescription="point" transform="translate(80.93359375,102.66266947425154)" d="M2.739,0A2.739,2.739,0,1,1,-2.739,0A2.739,2.739,0,1,1,2.739,0" fill="#ff2b2b" stroke-width="2" opacity="1"/><path aria-label="Number of Validated Messages: 32; False Positive Ratio: 0.118115211812; system_type: RSID; num_validation_messages: 32; false_positive_rate: 0.118115211812" role="graphics-symbol" aria-roledescription="point" transform="translate(107.91145833333334,78.23554140898185)" d="M2.739,0A2.739,2.739,0,1,1,-2.739,0A2.739,2.739,0,1,1,2.739,0" fill="#ff2b2b" stroke-width="2" opacity="1"/><path aria-label="Number of Validated Messages: 64; False Positive Ratio: 0.221548722155; system_type: RSID; num_validation_messages: 64; false_positive_rate: 0.221548722155" role="graphics-symbol" aria-roledescription="point" transform="translate(134.88932291666666,55.19875996235991)" d="M2.739,0A2.739,2.739,0,1,1,-2.739,0A2.739,2.739,0,1,1,2.739,0" fill="#ff2b2b" stroke-width="2" opacity="1"/><path aria-label="Number of Validated Messages: 128; False Positive Ratio: 0.392235939224; system_type: RSID; num_validation_messages: 128; false_positive_rate: 0.392235939224" role="graphics-symbol" aria-roledescription="point" transform="translate(161.8671875,34.27750394449005)" d="M2.739,0A2.739,2.739,0,1,1,-2.739,0A2.739,2.739,0,1,1,2.739,0" fill="#ff2b2b" stroke-width="2" opacity="1"/><path aria-label="Number of Validated Messages: 256; False Positive Ratio: 0.63260186326; system_type: RSID; num_validation_messages: 256; false_positive_rate: 0.63260186326" role="graphics-symbol" aria-roledescription="point" transform="translate(188.84505208333334,16.771330637510474)" d="M2.739,0A2.739,2.739,0,1,1,-2.739,0A2.739,2.739,0,1,1,2.739,0" fill="#ff2b2b" stroke-width="2" opacity="1"/><path aria-label="Number of Validated Messages: 512; False Positive Ratio: 0.867051886705; system_type: RSID; num_validation_messages: 512; false_positive_rate: 0.867051886705" role="graphics-symbol" aria-roledescription="point" transform="translate(215.82291666666669,5.22486427924584)" d="M2.739,0A2.739,2.739,0,1,1,-2.739,0A2.739,2.739,0,1,1,2.739,0" fill="#ff2b2b" stroke-width="2" opacity="1"/><path aria-label="Number of Validated Messages: 1024; False Positive Ratio: 0.983669498367; system_type: RSID; num_validation_messages: 1024; false_positive_rate: 0.983669498367" role="graphics-symbol" aria-roledescription="point" transform="translate(242.80078125,0.6030503791401551)" d="M2.739,0A2.739,2.739,0,1,1,-2.739,0A2.739,2.739,0,1,1,2.739,0" fill="#ff2b2b" stroke-width="2" opacity="1"/><path aria-label="Number of Validated Messages: 2048; False Positive Ratio: 0.999590399959; system_type: RSID; num_validation_messages: 2048; false_positive_rate: 0.999590399959" role="graphics-symbol" aria-roledescription="point" transform="translate(269.77864583333337,0.015004880045173752)" d="M2.739,0A2.739,2.739,0,1,1,-2.739,0A2.739,2.739,0,1,1,2.739,0" fill="#ff2b2b" stroke-width="2" opacity="1"/><path aria-label="Number of Validated Messages: 4096; False Positive Ratio: 0.999879699988; system_type: RSID; num_validation_messages: 4096; false_positive_rate: 0.999879699988" role="graphics-symbol" aria-roledescription="point" transform="translate(296.75651041666663,0.004406313292932396)" d="M2.739,0A2.739,2.739,0,1,1,-2.739,0A2.739,2.739,0,1,1,2.739,0" fill="#ff2b2b" stroke-width="2" opacity="1"/><path aria-label="Number of Validated Messages: 8192; False Positive Ratio: 1; system_type: RSID; num_validation_messages: 8192; false_positive_rate: 1" role="graphics-symbol" aria-roledescription="point" transform="translate(323.734375,0)" d="M2.739,0A2.739,2.739,0,1,1,-2.739,0A2.739,2.739,0,1,1,2.739,0" fill="#ff2b2b" stroke-width="2" opacity="1"/></g><g class="mark-group role-legend" role="graphics-symbol" aria-roledescription="legend" aria-label="Symbol legend titled 'System Type' for fill color and stroke color with 3 values: Average Error, RMID, RSID"><g transform="translate(0,328)"><path class="background" aria-hidden="true" d="M0,0h226v49h-226Z" pointer-events="none"/><g><g class="mark-group role-legend-entry"><g transform="translate(7,26)"><path class="background" aria-hidden="true" d="M0,0h0v0h0Z" pointer-events="none"/><g><g class="mark-group role-scope" role="graphics-object" aria-roledescription="group mark container"><g transform="translate(0,0)"><path class="background" aria-hidden="true" d="M0,0h96.54204559326172v16h-96.54204559326172Z" pointer-events="none" opacity="1"/><g><g class="mark-symbol role-legend-symbol" pointer-events="none"><path transform="translate(7,7)" d="M5,0A5,5,0,1,1,-5,0A5,5,0,1,1,5,0" fill="#0068c9" stroke="#0068c9" stroke-width="4" opacity="1"/></g><g class="mark-text role-legend-label" pointer-events="none"><text text-anchor="start" transform="translate(18,11)" font-family="&quot;Source Sans&quot;, sans-serif" font-size="14px" font-weight="400" fill="#808495" opacity="1">Average Error</text></g></g><path class="foreground" aria-hidden="true" d="" pointer-events="none" display="none"/></g><g transform="translate(107,0)"><path class="background" aria-hidden="true" d="M0,0h48.438127517700195v16h-48.438127517700195Z" pointer-events="none" opacity="1"/><g><g class="mark-symbol role-legend-symbol" pointer-events="none"><path transform="translate(7,7)" d="M5,0A5,5,0,1,1,-5,0A5,5,0,1,1,5,0" fill="#83c9ff" stroke="#83c9ff" stroke-width="4" opacity="1"/></g><g class="mark-text role-legend-label" pointer-events="none"><text text-anchor="start" transform="translate(18,11)" font-family="&quot;Source Sans&quot;, sans-serif" font-size="14px" font-weight="400" fill="#808495" opacity="1">RMID</text></g></g><path class="foreground" aria-hidden="true" d="" pointer-events="none" display="none"/></g><g transform="translate(166,0)"><path class="background" aria-hidden="true" d="M0,0h45.537841796875v16h-45.537841796875Z" pointer-events="none" opacity="1"/><g><g class="mark-symbol role-legend-symbol" pointer-events="none"><path transform="translate(7,7)" d="M5,0A5,5,0,1,1,-5,0A5,5,0,1,1,5,0" fill="#ff2b2b" stroke="#ff2b2b" stroke-width="4" opacity="1"/></g><g class="mark-text role-legend-label" pointer-events="none"><text text-anchor="start" transform="translate(18,11)" font-family="&quot;Source Sans&quot;, sans-serif" font-size="14px" font-weight="400" fill="#808495" opacity="1">RSID</text></g></g><path class="foreground" aria-hidden="true" d="" pointer-events="none" display="none"/></g></g></g><path class="foreground" aria-hidden="true" d="" pointer-events="none" display="none"/></g></g><g class="mark-text role-legend-title" pointer-events="none"><text text-anchor="start" transform="translate(7,18)" font-family="&quot;Source Sans&quot;, sans-serif" font-size="14px" font-style="normal" font-weight="400" fill="#808495" opacity="1">System Type</text></g></g><path class="foreground" aria-hidden="true" d="" pointer-events="none" display="none"/></g></g></g><path class="foreground" aria-hidden="true" d="" display="none"/></g></g></g></svg>