<svg xmlns="http://www.w3.org/2000/svg" xmlns:xlink="http://www.w3.org/1999/xlink" version="1.1" class="marks" width="399.734375" height="400" viewBox="0 0 399.734375 400"><rect width="399.734375" height="400" fill="#ffffff"/><g fill="none" stroke-miterlimit="10" transform="translate(91,3)"><g class="mark-group role-frame root" role="graphics-object" aria-roledescription="group mark container"><g transform="translate(0,0)"><path class="background" aria-hidden="true" d="M0,0h305.734375v253h-305.734375Z" stroke-width="0"/><g><g class="mark-group role-axis" aria-hidden="true"><g transform="translate(0.5,253.5)"><path class="background" aria-hidden="true" d="M0,0h0v0h0Z" pointer-events="none"/><g><g class="mark-rule role-axis-grid" pointer-events="none"><line transform="translate(0,-253)" x2="0" y2="253" stroke="#e6eaf1" stroke-width="1" opacity="1"/><line transform="translate(25,-253)" x2="0" y2="253" stroke="#e6eaf1" stroke-width="1" opacity="1"/><line transform="translate(51,-253)" x2="0" y2="253" stroke="#e6eaf1" stroke-width="1" opacity="1"/><line transform="translate(76,-253)" x2="0" y2="253" stroke="#e6eaf1" stroke-width="1" opacity="1"/><line transform="translate(102,-253)" x2="0" y2="253" stroke="#e6eaf1" stroke-width="1" opacity="1"/><line transform="translate(127,-253)" x2="0" y2="253" stroke="#e6eaf1" stroke-width="1" opacity="1"/><line transform="translate(153,-253)" x2="0" y2="253" stroke="#e6eaf1" stroke-width="1" opacity="1"/><line transform="translate(178,-253)" x2="0" y2="253" stroke="#e6eaf1" stroke-width="1" opacity="1"/><line transform="translate(204,-253)" x2="0" y2="253" stroke="#e6eaf1" stroke-width="1" opacity="1"/><line transform="translate(229,-253)" x2="0" y2="253" stroke="#e6eaf1" stroke-width="1" opacity="1"/><line transform="translate(255,-253)" x2="0" y2="253" stroke="#e6eaf1" stroke-width="1" opacity="1"/><line transform="translate(280,-253)" x2="0" y2="253" stroke="#e6eaf1" stroke-width="1" opacity="1"/><line transform="translate(306,-253)" x2="0" y2="253" stroke="#e6eaf1" stroke-width="1" opacity="1"/></g></g><path class="foreground" aria-hidden="true" d="" pointer-events="none" display="none"/></g></g><g class="mark-group role-axis" aria-hidden="true"><g transform="translate(0.5,0.5)"><path class="background" aria-hidden="true" d="M0,0h0v0h0Z" pointer-events="none"/><g><g class="mark-rule role-axis-grid" pointer-events="none"><line transform="translate(0,253)" x2="305.734375" y2="0" stroke="#e6eaf1" stroke-width="1" opacity="1"/><line transform="translate(0,242)" x2="305.734375" y2="0" stroke="#e6eaf1" stroke-width="1" opacity="1"/><line transform="translate(0,236)" x2="305.734375" y2="0" stroke="#e6eaf1" stroke-width="1" opacity="1"/><line transform="translate(0,231)" x2="305.734375" y2="0" stroke="#e6eaf1" stroke-width="1" opacity="1"/><line transform="translate(0,228)" x2="305.734375" y2="0" stroke="#e6eaf1" stroke-width="1" opacity="1"/><line transform="translate(0,225)" x2="305.734375" y2="0" stroke="#e6eaf1" stroke-width="1" opacity="1"/><line transform="translate(0,222)" x2="305.734375" y2="0" stroke="#e6eaf1" stroke-width="1" opacity="1"/><line transform="translate(0,220)" x2="305.734375" y2="0" stroke="#e6eaf1" stroke-width="1" opacity="1"/><line transform="translate(0,219)" x2="305.734375" y2="0" stroke="#e6eaf1" stroke-width="1" opacity="1"/><line transform="translate(0,217)" x2="305.734375" y2="0" stroke="#e6eaf1" stroke-width="1" opacity="1"/><line transform="translate(0,206)" x2="305.734375" y2="0" stroke="#e6eaf1" stroke-width="1" opacity="1"/><line transform="translate(0,200)" x2="305.734375" y2="0" stroke="#e6eaf1" stroke-width="1" opacity="1"/><line transform="translate(0,195)" x2="305.734375" y2="0" stroke="#e6eaf1" stroke-width="1" opacity="1"/><line transform="translate(0,192)" x2="305.734375" y2="0" stroke="#e6eaf1" stroke-width="1" opacity="1"/><line transform="translate(0,189)" x2="305.734375" y2="0" stroke="#e6eaf1" stroke-width="1" opacity="1"/><line transform="translate(0,186)" x2="305.734375" y2="0" stroke="#e6eaf1" stroke-width="1" opacity="1"/><line transform="translate(0,184)" x2="305.734375" y2="0" stroke="#e6eaf1" stroke-width="1" opacity="1"/><line transform="translate(0,182)" x2="305.734375" y2="0" stroke="#e6eaf1" stroke-width="1" opacity="1"/><line transform="translate(0,181)" x2="305.734375" y2="0" stroke="#e6eaf1" stroke-width="1" opacity="1"/><line transform="translate(0,170)" x2="305.734375" y2="0" stroke="#e6eaf1" stroke-width="1" opacity="1"/><line transform="translate(0,163)" x2="305.734375" y2="0" stroke="#e6eaf1" stroke-width="1" opacity="1"/><line transform="translate(0,159)" x2="305.734375" y2="0" stroke="#e6eaf1" stroke-width="1" opacity="1"/><line transform="translate(0,155)" x2="305.734375" y2="0" stroke="#e6eaf1" stroke-width="1" opacity="1"/><line transform="translate(0,153)" x2="305.734375" y2="0" stroke="#e6eaf1" stroke-width="1" opacity="1"/><line transform="translate(0,150)" x2="305.734375" y2="0" stroke="#e6eaf1" stroke-width="1" opacity="1"/><line transform="translate(0,148)" x2="305.734375" y2="0" stroke="#e6eaf1" stroke-width="1" opacity="1"/><line transform="translate(0,146)" x2="305.734375" y2="0" stroke="#e6eaf1" stroke-width="1" opacity="1"/><line transform="translate(0,145)" x2="305.734375" y2="0" stroke="#e6eaf1" stroke-width="1" opacity="1"/><line transform="translate(0,134)" x2="305.734375" y2="0" stroke="#e6eaf1" stroke-width="1" opacity="1"/><line transform="translate(0,127)" x2="305.734375" y2="0" stroke="#e6eaf1" stroke-width="1" opacity="1"/><line transform="translate(0,123)" x2="305.734375" y2="0" stroke="#e6eaf1" stroke-width="1" opacity="1"/><line transform="translate(0,119)" x2="305.734375" y2="0" stroke="#e6eaf1" stroke-width="1" opacity="1"/><line transform="translate(0,116)" x2="305.734375" y2="0" stroke="#e6eaf1" stroke-width="1" opacity="1"/><line transform="translate(0,114)" x2="305.734375" y2="0" stroke="#e6eaf1" stroke-width="1" opacity="1"/><line transform="translate(0,112)" x2="305.734375" y2="0" stroke="#e6eaf1" stroke-width="1" opacity="1"/><line transform="translate(0,110)" x2="305.734375" y2="0" stroke="#e6eaf1" stroke-width="1" opacity="1"/><line transform="translate(0,108)" x2="305.734375" y2="0" stroke="#e6eaf1" stroke-width="1" opacity="1"/><line transform="translate(0,98)" x2="305.734375" y2="0" stroke="#e6eaf1" stroke-width="1" opacity="1"/><line transform="translate(0,91)" x2="305.734375" y2="0" stroke="#e6eaf1" stroke-width="1" opacity="1"/><line transform="translate(0,87)" x2="305.734375" y2="0" stroke="#e6eaf1" stroke-width="1" opacity="1"/><line transform="translate(0,83)" x2="305.734375" y2="0" stroke="#e6eaf1" stroke-width="1" opacity="1"/><line transform="translate(0,80)" x2="305.734375" y2="0" stroke="#e6eaf1" stroke-width="1" opacity="1"/><line transform="translate(0,78)" x2="305.734375" y2="0" stroke="#e6eaf1" stroke-width="1" opacity="1"/><line transform="translate(0,76)" x2="305.734375" y2="0" stroke="#e6eaf1" stroke-width="1" opacity="1"/><line transform="translate(0,74)" x2="305.734375" y2="0" stroke="#e6eaf1" stroke-width="1" opacity="1"/><line transform="translate(0,72)" x2="305.734375" y2="0" stroke="#e6eaf1" stroke-width="1" opacity="1"/><line transform="translate(0,61)" x2="305.734375" y2="0" stroke="#e6eaf1" stroke-width="1" opacity="1"/><line transform="translate(0,55)" x2="305.734375" y2="0" stroke="#e6eaf1" stroke-width="1" opacity="1"/><line transform="translate(0,51)" x2="305.734375" y2="0" stroke="#e6eaf1" stroke-width="1" opacity="1"/><line transform="translate(0,47)" x2="305.734375" y2="0" stroke="#e6eaf1" stroke-width="1" opacity="1"/><line transform="translate(0,44)" x2="305.734375" y2="0" stroke="#e6eaf1" stroke-width="1" opacity="1"/><line transform="translate(0,42)" x2="305.734375" y2="0" stroke="#e6eaf1" stroke-width="1" opacity="1"/><line transform="translate(0,40)" x2="305.734375" y2="0" stroke="#e6eaf1" stroke-width="1" opacity="1"/><line transform="translate(0,38)" x2="305.734375" y2="0" stroke="#e6eaf1" stroke-width="1" opacity="1"/><line transform="translate(0,36)" x2="305.734375" y2="0" stroke="#e6eaf1" stroke-width="1" opacity="1"/><line transform="translate(0,25)" x2="305.734375" y2="0" stroke="#e6eaf1" stroke-width="1" opacity="1"/><line transform="translate(0,19)" x2="305.734375" y2="0" stroke="#e6eaf1" stroke-width="1" opacity="1"/><line transform="translate(0,14)" x2="305.734375" y2="0" stroke="#e6eaf1" stroke-width="1" opacity="1"/><line transform="translate(0,11)" x2="305.734375" y2="0" stroke="#e6eaf1" stroke-width="1" opacity="1"/><line transform="translate(0,8)" x2="305.734375" y2="0" stroke="#e6eaf1" stroke-width="1" opacity="1"/><line transform="translate(0,6)" x2="305.734375" y2="0" stroke="#e6eaf1" stroke-width="1" opacity="1"/><line transform="translate(0,4)" x2="305.734375" y2="0" stroke="#e6eaf1" stroke-width="1" opacity="1"/><line transform="translate(0,2)" x2="305.734375" y2="0" stroke="#e6eaf1" stroke-width="1" opacity="1"/><line transform="translate(0,0)" x2="305.734375" y2="0" stroke="#e6eaf1" stroke-width="1" opacity="1"/></g></g><path class="foreground" aria-hidden="true" d="" pointer-events="none" display="none"/></g></g><g class="mark-group role-axis" role="graphics-symbol" aria-roledescription="axis" aria-label="X-axis titled 'Number of Validated Messages' for a log scale with values from 2 to 8,192"><g transform="translate(0.5,253.5)"><path class="background" aria-hidden="true" d="M0,0h0v0h0Z" pointer-events="none"/><g><g class="mark-text role-axis-label" pointer-events="none"><text text-anchor="start" transform="translate(-1,25)" font-family="&quot;Source Sans&quot;, sans-serif" font-size="12px" font-style="normal" font-weight="400" fill="#808495" opacity="1">2</text><text text-anchor="middle" transform="translate(25.477864583333336,25)" font-family="&quot;Source Sans&quot;, sans-serif" font-size="12px" font-style="normal" font-weight="400" fill="#808495" opacity="0">4</text><text text-anchor="middle" transform="translate(50.955729166666664,25)" font-family="&quot;Source Sans&quot;, sans-serif" font-size="12px" font-style="normal" font-weight="400" fill="#808495" opacity="1">8</text><text text-anchor="middle" transform="translate(76.43359375,25)" font-family="&quot;Source Sans&quot;, sans-serif" font-size="12px" font-style="normal" font-weight="400" fill="#808495" opacity="0">16</text><text text-anchor="middle" transform="translate(101.91145833333334,25)" font-family="&quot;Source Sans&quot;, sans-serif" font-size="12px" font-style="normal" font-weight="400" fill="#808495" opacity="1">32</text><text text-anchor="middle" transform="translate(127.38932291666666,25)" font-family="&quot;Source Sans&quot;, sans-serif" font-size="12px" font-style="normal" font-weight="400" fill="#808495" opacity="0">64</text><text text-anchor="middle" transform="translate(152.8671875,25)" font-family="&quot;Source Sans&quot;, sans-serif" font-size="12px" font-style="normal" font-weight="400" fill="#808495" opacity="1">128</text><text text-anchor="middle" transform="translate(178.34505208333334,25)" font-family="&quot;Source Sans&quot;, sans-serif" font-size="12px" font-style="normal" font-weight="400" fill="#808495" opacity="0">256</text><text text-anchor="middle" transform="translate(203.82291666666669,25)" font-family="&quot;Source Sans&quot;, sans-serif" font-size="12px" font-style="normal" font-weight="400" fill="#808495" opacity="1">512</text><text text-anchor="middle" transform="translate(229.30078125,25)" font-family="&quot;Source Sans&quot;, sans-serif" font-size="12px" font-style="normal" font-weight="400" fill="#808495" opacity="0">1,024</text><text text-anchor="middle" transform="translate(254.77864583333334,25)" font-family="&quot;Source Sans&quot;, sans-serif" font-size="12px" font-style="normal" font-weight="400" fill="#808495" opacity="1">2,048</text><text text-anchor="middle" transform="translate(280.25651041666663,25)" font-family="&quot;Source Sans&quot;, sans-serif" font-size="12px" font-style="normal" font-weight="400" fill="#808495" opacity="0">4,096</text><text text-anchor="end" transform="translate(306.734375,25)" font-family="&quot;Source Sans&quot;, sans-serif" font-size="12px" font-style="normal" font-weight="400" fill="#808495" opacity="1">8,192</text></g><g class="mark-text role-axis-title" pointer-events="none"><text text-anchor="middle" transform="translate(152.8671875,54)" font-family="&quot;Source Sans&quot;, sans-serif" font-size="14px" font-style="normal" font-weight="400" fill="#808495" opacity="1">Number of Validated Messages</text></g></g><path class="foreground" aria-hidden="true" d="" pointer-events="none" display="none"/></g></g><g class="mark-group role-axis" role="graphics-symbol" aria-roledescription="axis" aria-label="Y-axis titled 'False Positive Ratio' for a log scale with values from 1e-7 to 1"><g transform="translate(0.5,0.5)"><path class="background" aria-hidden="true" d="M0,0h0v0h0Z" pointer-events="none"/><g><g class="mark-text role-axis-label" pointer-events="none"><text text-anchor="end" transform="translate(-16,251)" font-family="&quot;Source Sans&quot;, sans-serif" font-size="12px" font-style="normal" font-weight="400" fill="#808495" opacity="1">1e-7</text><text text-anchor="end" transform="translate(-16,246.11991587100184)" font-family="&quot;Source Sans&quot;, sans-serif" font-size="12px" font-style="normal" font-weight="400" fill="#808495" opacity="1"/><text text-anchor="end" transform="translate(-16,239.75547465084648)" font-family="&quot;Source Sans&quot;, sans-serif" font-size="12px" font-style="normal" font-weight="400" fill="#808495" opacity="1"/><text text-anchor="end" transform="translate(-16,235.23983174200364)" font-family="&quot;Source Sans&quot;, sans-serif" font-size="12px" font-style="normal" font-weight="400" fill="#808495" opacity="1"/><text text-anchor="end" transform="translate(-16,231.73722698614102)" font-family="&quot;Source Sans&quot;, sans-serif" font-size="12px" font-style="normal" font-weight="400" fill="#808495" opacity="1"/><text text-anchor="end" transform="translate(-16,228.8753905218483)" font-family="&quot;Source Sans&quot;, sans-serif" font-size="12px" font-style="normal" font-weight="400" fill="#808495" opacity="1"/><text text-anchor="end" transform="translate(-16,226.45574226805613)" font-family="&quot;Source Sans&quot;, sans-serif" font-size="12px" font-style="normal" font-weight="400" fill="#808495" opacity="1"/><text text-anchor="end" transform="translate(-16,224.35974761300545)" font-family="&quot;Source Sans&quot;, sans-serif" font-size="12px" font-style="normal" font-weight="400" fill="#808495" opacity="1"/><text text-anchor="end" transform="translate(-16,222.51094930169296)" font-family="&quot;Source Sans&quot;, sans-serif" font-size="12px" font-style="normal" font-weight="400" fill="#808495" opacity="1"/><text text-anchor="end" transform="translate(-16,220.85714285714283)" font-family="&quot;Source Sans&quot;, sans-serif" font-size="12px" font-style="normal" font-weight="400" fill="#808495" opacity="1">0.000001</text><text text-anchor="end" transform="translate(-16,209.97705872814464)" font-family="&quot;Source Sans&quot;, sans-serif" font-size="12px" font-style="normal" font-weight="400" fill="#808495" opacity="1"/><text text-anchor="end" transform="translate(-16,203.61261750798934)" font-family="&quot;Source Sans&quot;, sans-serif" font-size="12px" font-style="normal" font-weight="400" fill="#808495" opacity="1"/><text text-anchor="end" transform="translate(-16,199.09697459914648)" font-family="&quot;Source Sans&quot;, sans-serif" font-size="12px" font-style="normal" font-weight="400" fill="#808495" opacity="1"/><text text-anchor="end" transform="translate(-16,195.59436984328389)" font-family="&quot;Source Sans&quot;, sans-serif" font-size="12px" font-style="normal" font-weight="400" fill="#808495" opacity="1"/><text text-anchor="end" transform="translate(-16,192.73253337899115)" font-family="&quot;Source Sans&quot;, sans-serif" font-size="12px" font-style="normal" font-weight="400" fill="#808495" opacity="1"/><text text-anchor="end" transform="translate(-16,190.312885125199)" font-family="&quot;Source Sans&quot;, sans-serif" font-size="12px" font-style="normal" font-weight="400" fill="#808495" opacity="1"/><text text-anchor="end" transform="translate(-16,188.21689047014831)" font-family="&quot;Source Sans&quot;, sans-serif" font-size="12px" font-style="normal" font-weight="400" fill="#808495" opacity="1"/><text text-anchor="end" transform="translate(-16,186.36809215883582)" font-family="&quot;Source Sans&quot;, sans-serif" font-size="12px" font-style="normal" font-weight="400" fill="#808495" opacity="1"/><text text-anchor="end" transform="translate(-16,184.7142857142857)" font-family="&quot;Source Sans&quot;, sans-serif" font-size="12px" font-style="normal" font-weight="400" fill="#808495" opacity="1">0.00001</text><text text-anchor="end" transform="translate(-16,173.83420158528753)" font-family="&quot;Source Sans&quot;, sans-serif" font-size="12px" font-style="normal" font-weight="400" fill="#808495" opacity="1"/><text text-anchor="end" transform="translate(-16,167.46976036513223)" font-family="&quot;Source Sans&quot;, sans-serif" font-size="12px" font-style="normal" font-weight="400" fill="#808495" opacity="1"/><text text-anchor="end" transform="translate(-16,162.95411745628934)" font-family="&quot;Source Sans&quot;, sans-serif" font-size="12px" font-style="normal" font-weight="400" fill="#808495" opacity="1"/><text text-anchor="end" transform="translate(-16,159.45151270042675)" font-family="&quot;Source Sans&quot;, sans-serif" font-size="12px" font-style="normal" font-weight="400" fill="#808495" opacity="1"/><text text-anchor="end" transform="translate(-16,156.58967623613404)" font-family="&quot;Source Sans&quot;, sans-serif" font-size="12px" font-style="normal" font-weight="400" fill="#808495" opacity="1"/><text text-anchor="end" transform="translate(-16,154.17002798234185)" font-family="&quot;Source Sans&quot;, sans-serif" font-size="12px" font-style="normal" font-weight="400" fill="#808495" opacity="1"/><text text-anchor="end" transform="translate(-16,152.07403332729118)" font-family="&quot;Source Sans&quot;, sans-serif" font-size="12px" font-style="normal" font-weight="400" fill="#808495" opacity="1"/><text text-anchor="end" transform="translate(-16,150.22523501597868)" font-family="&quot;Source Sans&quot;, sans-serif" font-size="12px" font-style="normal" font-weight="400" fill="#808495" opacity="1"/><text text-anchor="end" transform="translate(-16,148.57142857142856)" font-family="&quot;Source Sans&quot;, sans-serif" font-size="12px" font-style="normal" font-weight="400" fill="#808495" opacity="1">0.0001</text><text text-anchor="end" transform="translate(-16,137.6913444424304)" font-family="&quot;Source Sans&quot;, sans-serif" font-size="12px" font-style="normal" font-weight="400" fill="#808495" opacity="1"/><text text-anchor="end" transform="translate(-16,131.32690322227506)" font-family="&quot;Source Sans&quot;, sans-serif" font-size="12px" font-style="normal" font-weight="400" fill="#808495" opacity="1"/><text text-anchor="end" transform="translate(-16,126.81126031343221)" font-family="&quot;Source Sans&quot;, sans-serif" font-size="12px" font-style="normal" font-weight="400" fill="#808495" opacity="1"/><text text-anchor="end" transform="translate(-16,123.30865555756961)" font-family="&quot;Source Sans&quot;, sans-serif" font-size="12px" font-style="normal" font-weight="400" fill="#808495" opacity="1"/><text text-anchor="end" transform="translate(-16,120.4468190932769)" font-family="&quot;Source Sans&quot;, sans-serif" font-size="12px" font-style="normal" font-weight="400" fill="#808495" opacity="1"/><text text-anchor="end" transform="translate(-16,118.0271708394847)" font-family="&quot;Source Sans&quot;, sans-serif" font-size="12px" font-style="normal" font-weight="400" fill="#808495" opacity="1"/><text text-anchor="end" transform="translate(-16,115.93117618443402)" font-family="&quot;Source Sans&quot;, sans-serif" font-size="12px" font-style="normal" font-weight="400" fill="#808495" opacity="1"/><text text-anchor="end" transform="translate(-16,114.08237787312156)" font-family="&quot;Source Sans&quot;, sans-serif" font-size="12px" font-style="normal" font-weight="400" fill="#808495" opacity="1"/><text text-anchor="end" transform="translate(-16,112.4285714285714)" font-family="&quot;Source Sans&quot;, sans-serif" font-size="12px" font-style="normal" font-weight="400" fill="#808495" opacity="1">0.001</text><text text-anchor="end" transform="translate(-16,101.54848729957324)" font-family="&quot;Source Sans&quot;, sans-serif" font-size="12px" font-style="normal" font-weight="400" fill="#808495" opacity="1"/><text text-anchor="end" transform="translate(-16,95.18404607941791)" font-family="&quot;Source Sans&quot;, sans-serif" font-size="12px" font-style="normal" font-weight="400" fill="#808495" opacity="1"/><text text-anchor="end" transform="translate(-16,90.66840317057506)" font-family="&quot;Source Sans&quot;, sans-serif" font-size="12px" font-style="normal" font-weight="400" fill="#808495" opacity="1"/><text text-anchor="end" transform="translate(-16,87.16579841471248)" font-family="&quot;Source Sans&quot;, sans-serif" font-size="12px" font-style="normal" font-weight="400" fill="#808495" opacity="1"/><text text-anchor="end" transform="translate(-16,84.30396195041975)" font-family="&quot;Source Sans&quot;, sans-serif" font-size="12px" font-style="normal" font-weight="400" fill="#808495" opacity="1"/><text text-anchor="end" transform="translate(-16,81.88431369662757)" font-family="&quot;Source Sans&quot;, sans-serif" font-size="12px" font-style="normal" font-weight="400" fill="#808495" opacity="1"/><text text-anchor="end" transform="translate(-16,79.78831904157693)" font-family="&quot;Source Sans&quot;, sans-serif" font-size="12px" font-style="normal" font-weight="400" fill="#808495" opacity="1"/><text text-anchor="end" transform="translate(-16,77.93952073026442)" font-family="&quot;Source Sans&quot;, sans-serif" font-size="12px" font-style="normal" font-weight="400" fill="#808495" opacity="1"/><text text-anchor="end" transform="translate(-16,76.28571428571425)" font-family="&quot;Source Sans&quot;, sans-serif" font-size="12px" font-style="normal" font-weight="400" fill="#808495" opacity="1">0.01</text><text text-anchor="end" transform="translate(-16,65.40563015671611)" font-family="&quot;Source Sans&quot;, sans-serif" font-size="12px" font-style="normal" font-weight="400" fill="#808495" opacity="1"/><text text-anchor="end" transform="translate(-16,59.04118893656079)" font-family="&quot;Source Sans&quot;, sans-serif" font-size="12px" font-style="normal" font-weight="400" fill="#808495" opacity="1"/><text text-anchor="end" transform="translate(-16,54.52554602771794)" font-family="&quot;Source Sans&quot;, sans-serif" font-size="12px" font-style="normal" font-weight="400" fill="#808495" opacity="1"/><text text-anchor="end" transform="translate(-16,51.022941271855295)" font-family="&quot;Source Sans&quot;, sans-serif" font-size="12px" font-style="normal" font-weight="400" fill="#808495" opacity="1"/><text text-anchor="end" transform="translate(-16,48.16110480756259)" font-family="&quot;Source Sans&quot;, sans-serif" font-size="12px" font-style="normal" font-weight="400" fill="#808495" opacity="1"/><text text-anchor="end" transform="translate(-16,45.74145655377045)" font-family="&quot;Source Sans&quot;, sans-serif" font-size="12px" font-style="normal" font-weight="400" fill="#808495" opacity="1"/><text text-anchor="end" transform="translate(-16,43.645461898719766)" font-family="&quot;Source Sans&quot;, sans-serif" font-size="12px" font-style="normal" font-weight="400" fill="#808495" opacity="1"/><text text-anchor="end" transform="translate(-16,41.796663587407245)" font-family="&quot;Source Sans&quot;, sans-serif" font-size="12px" font-style="normal" font-weight="400" fill="#808495" opacity="1"/><text text-anchor="end" transform="translate(-16,40.142857142857125)" font-family="&quot;Source Sans&quot;, sans-serif" font-size="12px" font-style="normal" font-weight="400" fill="#808495" opacity="1">0.1</text><text text-anchor="end" transform="translate(-16,29.262773013858954)" font-family="&quot;Source Sans&quot;, sans-serif" font-size="12px" font-style="normal" font-weight="400" fill="#808495" opacity="1"/><text text-anchor="end" transform="translate(-16,22.898331793703637)" font-family="&quot;Source Sans&quot;, sans-serif" font-size="12px" font-style="normal" font-weight="400" fill="#808495" opacity="1"/><text text-anchor="end" transform="translate(-16,18.382688884860784)" font-family="&quot;Source Sans&quot;, sans-serif" font-size="12px" font-style="normal" font-weight="400" fill="#808495" opacity="1"/><text text-anchor="end" transform="translate(-16,14.880084128998172)" font-family="&quot;Source Sans&quot;, sans-serif" font-size="12px" font-style="normal" font-weight="400" fill="#808495" opacity="1"/><text text-anchor="end" transform="translate(-16,12.018247664705436)" font-family="&quot;Source Sans&quot;, sans-serif" font-size="12px" font-style="normal" font-weight="400" fill="#808495" opacity="1"/><text text-anchor="end" transform="translate(-16,9.598599410913266)" font-family="&quot;Source Sans&quot;, sans-serif" font-size="12px" font-style="normal" font-weight="400" fill="#808495" opacity="1"/><text text-anchor="end" transform="translate(-16,7.502604755862584)" font-family="&quot;Source Sans&quot;, sans-serif" font-size="12px" font-style="normal" font-weight="400" fill="#808495" opacity="1"/><text text-anchor="end" transform="translate(-16,5.653806444550087)" font-family="&quot;Source Sans&quot;, sans-serif" font-size="12px" font-style="normal" font-weight="400" fill="#808495" opacity="1"/><text text-anchor="end" transform="translate(-16,8)" font-family="&quot;Source Sans&quot;, sans-serif" font-size="12px" font-style="normal" font-weight="400" fill="#808495" opacity="1">1</text></g><g class="mark-text role-axis-title" pointer-events="none"><text text-anchor="middle" transform="translate(-76.74047088623047,126.5) rotate(-90) translate(0,-3)" font-family="&quot;Source Sans&quot;, sans-serif" font-size="14px" font-style="normal" font-weight="400" fill="#808495" opacity="1">False Positive Ratio</text></g></g><path class="foreground" aria-hidden="true" d="" pointer-events="none" display="none"/></g></g><g class="mark-group role-scope layer_0_pathgroup" role="graphics-object" aria-roledescription="group mark container"><g transform="translate(0,0)"><path class="background" aria-hidden="true" d="M0,0h305.734375v253h-305.734375Z"/><g><g class="mark-line role-mark layer_0_marks" role="graphics-object" aria-roledescription="line mark container"><path aria-label="Number of Validated Messages: 2; False Positive Ratio: 1.19209285998e-7; system_type: Average Error; num_validation_messages: 2; false_positive_rate: 1.19209285998e-7" role="graphics-symbol" aria-roledescription="line mark" d="M0,250.242L25.478,239.362L50.956,228.482L76.434,217.602L101.911,206.722L127.389,195.842L152.867,184.961L178.345,174.081L203.823,163.202L229.301,152.322L254.779,141.442L280.257,130.563L305.734,119.685" stroke="#0068c9" stroke-width="2"/></g></g><path class="foreground" aria-hidden="true" d="" display="none"/></g><g transform="translate(0,0)"><path class="background" aria-hidden="true" d="M0,0h305.734375v253h-305.734375Z"/><g><g class="mark-line role-mark layer_0_marks" role="graphics-object" aria-roledescription="line mark container"><path aria-label="Number of Validated Messages: 2; False Positive Ratio: 0.00784540078454; system_type: RMID; num_validation_messages: 2; false_positive_rate: 0.00784540078454" role="graphics-symbol" aria-roledescription="line mark" d="M0,76.095L25.478,65.281L50.956,54.674L76.434,43.87L101.911,33.564L127.389,23.657L152.867,14.432L178.345,7.253L203.823,2.229L229.301,0.291L254.779,0.013L280.257,0.002L305.734,0" stroke="#83c9ff" stroke-width="2"/></g></g><path class="foreground" aria-hidden="true" d="" display="none"/></g><g transform="translate(0,0)"><path class="background" aria-hidden="true" d="M0,0h305.734375v253h-305.734375Z"/><g><g class="mark-line role-mark layer_0_marks" role="graphics-object" aria-roledescription="line mark container"><path aria-label="Number of Validated Messages: 2; False Positive Ratio: 4.0000004e-7; system_type: RSID; num_validation_messages: 2; false_positive_rate: 4.0000004e-7" role="graphics-symbol" aria-roledescription="line mark" d="M0,231.24L25.478,231.24M76.434,209.48ZM178.345,165.959ZM254.779,133.319L280.257,122.439" stroke="#ff2b2b" stroke-width="2"/></g></g><path class="foreground" aria-hidden="true" d="" display="none"/></g></g><g class="mark-symbol role-mark layer_1_marks" role="graphics-object" aria-roledescription="symbol mark container"><path aria-label="Number of Validated Messages: 2; False Positive Ratio: 1.19209285998e-7; system_type: Average Error; num_validation_messages: 2; false_positive_rate: 1.19209285998e-7" role="graphics-symbol" aria-roledescription="point" transform="translate(0,250.2419354347545)" d="M2.739,0A2.739,2.739,0,1,1,-2.739,0A2.739,2.739,0,1,1,2.739,0" fill="#0068c9" stroke-width="2" opacity="1"/><path aria-label="Number of Validated Messages: 4; False Positive Ratio: 2.38418557785e-7; system_type: Average Error; num_validation_messages: 4; false_positive_rate: 2.38418557785e-7" role="graphics-symbol" aria-roledescription="point" transform="translate(25.477864583333336,239.36185224134925)" d="M2.739,0A2.739,2.739,0,1,1,-2.739,0A2.739,2.739,0,1,1,2.739,0" fill="#0068c9" stroke-width="2" opacity="1"/><path aria-label="Number of Validated Messages: 8; False Positive Ratio: 4.76837058727e-7; system_type: Average Error; num_validation_messages: 8; false_positive_rate: 4.76837058727e-7" role="graphics-symbol" aria-roledescription="point" transform="translate(50.955729166666664,228.48176998353705)" d="M2.739,0A2.739,2.739,0,1,1,-2.739,0A2.739,2.739,0,1,1,2.739,0" fill="#0068c9" stroke-width="2" opacity="1"/><path aria-label="Number of Validated Messages: 16; False Positive Ratio: 9.53673890081e-7; system_type: Average Error; num_validation_messages: 16; false_positive_rate: 9.53673890081e-7" role="graphics-symbol" aria-roledescription="point" transform="translate(76.43359375,217.6016895969115)" d="M2.739,0A2.739,2.739,0,1,1,-2.739,0A2.739,2.739,0,1,1,2.739,0" fill="#0068c9" stroke-width="2" opacity="1"/><path aria-label="Number of Validated Messages: 32; False Positive Ratio: 0.00000190734687067; system_type: Average Error; num_validation_messages: 32; false_positive_rate: 0.00000190734687067" role="graphics-symbol" aria-roledescription="point" transform="translate(101.91145833333334,206.7216129526613)" d="M2.739,0A2.739,2.739,0,1,1,-2.739,0A2.739,2.739,0,1,1,2.739,0" fill="#0068c9" stroke-width="2" opacity="1"/><path aria-label="Number of Validated Messages: 64; False Positive Ratio: 0.00000381469010335; system_type: Average Error; num_validation_messages: 64; false_positive_rate: 0.00000381469010335" role="graphics-symbol" aria-roledescription="point" transform="translate(127.38932291666666,195.8415437931698)" d="M2.739,0A2.739,2.739,0,1,1,-2.739,0A2.739,2.739,0,1,1,2.739,0" fill="#0068c9" stroke-width="2" opacity="1"/><path aria-label="Number of Validated Messages: 128; False Positive Ratio: 0.0000076293656549; system_type: Average Error; num_validation_messages: 128; false_positive_rate: 0.0000076293656549" role="graphics-symbol" aria-roledescription="point" transform="translate(152.8671875,184.9614896029993)" d="M2.739,0A2.739,2.739,0,1,1,-2.739,0A2.739,2.739,0,1,1,2.739,0" fill="#0068c9" stroke-width="2" opacity="1"/><path aria-label="Number of Validated Messages: 256; False Positive Ratio: 0.0000152586731025; system_type: Average Error; num_validation_messages: 256; false_positive_rate: 0.0000152586731025" role="graphics-symbol" aria-roledescription="point" transform="translate(178.34505208333334,174.0814653519421)" d="M2.739,0A2.739,2.739,0,1,1,-2.739,0A2.739,2.739,0,1,1,2.739,0" fill="#0068c9" stroke-width="2" opacity="1"/><path aria-label="Number of Validated Messages: 512; False Positive Ratio: 0.0000305171133779; system_type: Average Error; num_validation_messages: 512; false_positive_rate: 0.0000305171133779" role="graphics-symbol" aria-roledescription="point" transform="translate(203.82291666666669,163.20150097836893)" d="M2.739,0A2.739,2.739,0,1,1,-2.739,0A2.739,2.739,0,1,1,2.739,0" fill="#0068c9" stroke-width="2" opacity="1"/><path aria-label="Number of Validated Messages: 1024; False Positive Ratio: 0.0000610332954616; system_type: Average Error; num_validation_messages: 1024; false_positive_rate: 0.0000610332954616" role="graphics-symbol" aria-roledescription="point" transform="translate(229.30078125,152.32165635930704)" d="M2.739,0A2.739,2.739,0,1,1,-2.739,0A2.739,2.739,0,1,1,2.739,0" fill="#0068c9" stroke-width="2" opacity="1"/><path aria-label="Number of Validated Messages: 2048; False Positive Ratio: 0.00012206286586; system_type: Average Error; num_validation_messages: 2048; false_positive_rate: 0.00012206286586" role="graphics-symbol" aria-roledescription="point" transform="translate(254.77864583333334,141.44205124654542)" d="M2.739,0A2.739,2.739,0,1,1,-2.739,0A2.739,2.739,0,1,1,2.739,0" fill="#0068c9" stroke-width="2" opacity="1"/><path aria-label="Number of Validated Messages: 4096; False Positive Ratio: 0.000244110832377; system_type: Average Error; num_validation_messages: 4096; false_positive_rate: 0.000244110832377" role="graphics-symbol" aria-roledescription="point" transform="translate(280.25651041666663,130.5629251354271)" d="M2.739,0A2.739,2.739,0,1,1,-2.739,0A2.739,2.739,0,1,1,2.739,0" fill="#0068c9" stroke-width="2" opacity="1"/><path aria-label="Number of Validated Messages: 8192; False Positive Ratio: 0.000488162074655; system_type: Average Error; num_validation_messages: 8192; false_positive_rate: 0.000488162074655" role="graphics-symbol" aria-roledescription="point" transform="translate(305.734375,119.68475698370136)" d="M2.739,0A2.739,2.739,0,1,1,-2.739,0A2.739,2.739,0,1,1,2.739,0" fill="#0068c9" stroke-width="2" opacity="1"/><path aria-label="Number of Validated Messages: 2; False Positive Ratio: 0.00784540078454; system_type: RMID; num_validation_messages: 2; false_positive_rate: 0.00784540078454" role="graphics-symbol" aria-roledescription="point" transform="translate(0,76.09462442278964)" d="M2.739,0A2.739,2.739,0,1,1,-2.739,0A2.739,2.739,0,1,1,2.739,0" fill="#83c9ff" stroke-width="2" opacity="1"/><path aria-label="Number of Validated Messages: 4; False Positive Ratio: 0.0156247015625; system_type: RMID; num_validation_messages: 4; false_positive_rate: 0.0156247015625" role="graphics-symbol" aria-roledescription="point" transform="translate(25.477864583333336,65.28080458277157)" d="M2.739,0A2.739,2.739,0,1,1,-2.739,0A2.739,2.739,0,1,1,2.739,0" fill="#83c9ff" stroke-width="2" opacity="1"/><path aria-label="Number of Validated Messages: 8; False Positive Ratio: 0.030709603071; system_type: RMID; num_validation_messages: 8; false_positive_rate: 0.030709603071" role="graphics-symbol" aria-roledescription="point" transform="translate(50.955729166666664,54.6742323730124)" d="M2.739,0A2.739,2.739,0,1,1,-2.739,0A2.739,2.739,0,1,1,2.739,0" fill="#83c9ff" stroke-width="2" opacity="1"/><path aria-label="Number of Validated Messages: 16; False Positive Ratio: 0.0611248061125; system_type: RMID; num_validation_messages: 16; false_positive_rate: 0.0611248061125" role="graphics-symbol" aria-roledescription="point" transform="translate(76.43359375,43.86956769682088)" d="M2.739,0A2.739,2.739,0,1,1,-2.739,0A2.739,2.739,0,1,1,2.739,0" fill="#83c9ff" stroke-width="2" opacity="1"/><path aria-label="Number of Validated Messages: 32; False Positive Ratio: 0.117852611785; system_type: RMID; num_validation_messages: 32; false_positive_rate: 0.117852611785" role="graphics-symbol" aria-roledescription="point" transform="translate(101.91145833333334,33.56445421060561)" d="M2.739,0A2.739,2.739,0,1,1,-2.739,0A2.739,2.739,0,1,1,2.739,0" fill="#83c9ff" stroke-width="2" opacity="1"/><path aria-label="Number of Validated Messages: 64; False Positive Ratio: 0.221538522154; system_type: RMID; num_validation_messages: 64; false_positive_rate: 0.221538522154" role="graphics-symbol" aria-roledescription="point" transform="translate(127.38932291666666,23.657334095301866)" d="M2.739,0A2.739,2.739,0,1,1,-2.739,0A2.739,2.739,0,1,1,2.739,0" fill="#83c9ff" stroke-width="2" opacity="1"/><path aria-label="Number of Validated Messages: 128; False Positive Ratio: 0.398745939875; system_type: RMID; num_validation_messages: 128; false_positive_rate: 0.398745939875" role="graphics-symbol" aria-roledescription="point" transform="translate(152.8671875,14.431977525475991)" d="M2.739,0A2.739,2.739,0,1,1,-2.739,0A2.739,2.739,0,1,1,2.739,0" fill="#83c9ff" stroke-width="2" opacity="1"/><path aria-label="Number of Validated Messages: 256; False Positive Ratio: 0.629988162999; system_type: RMID; num_validation_messages: 256; false_positive_rate: 0.629988162999" role="graphics-symbol" aria-roledescription="point" transform="translate(178.34505208333334,7.25270078075267)" d="M2.739,0A2.739,2.739,0,1,1,-2.739,0A2.739,2.739,0,1,1,2.739,0" fill="#83c9ff" stroke-width="2" opacity="1"/><path aria-label="Number of Validated Messages: 512; False Positive Ratio: 0.86760468676; system_type: RMID; num_validation_messages: 512; false_positive_rate: 0.86760468676" role="graphics-symbol" aria-roledescription="point" transform="translate(203.82291666666669,2.229223140718477)" d="M2.739,0A2.739,2.739,0,1,1,-2.739,0A2.739,2.739,0,1,1,2.739,0" fill="#83c9ff" stroke-width="2" opacity="1"/><path aria-label="Number of Validated Messages: 1024; False Positive Ratio: 0.981624598162; system_type: RMID; num_validation_messages: 1024; false_positive_rate: 0.981624598162" role="graphics-symbol" aria-roledescription="point" transform="translate(229.30078125,0.2911150760751764)" d="M2.739,0A2.739,2.739,0,1,1,-2.739,0A2.739,2.739,0,1,1,2.739,0" fill="#83c9ff" stroke-width="2" opacity="1"/><path aria-label="Number of Validated Messages: 2048; False Positive Ratio: 0.999180799918; system_type: RMID; num_validation_messages: 2048; false_positive_rate: 0.999180799918" role="graphics-symbol" aria-roledescription="point" transform="translate(254.77864583333334,0.01286396137217316)" d="M2.739,0A2.739,2.739,0,1,1,-2.739,0A2.739,2.739,0,1,1,2.739,0" fill="#83c9ff" stroke-width="2" opacity="1"/><path aria-label="Number of Validated Messages: 4096; False Positive Ratio: 0.999879699988; system_type: RMID; num_validation_messages: 4096; false_positive_rate: 0.999879699988" role="graphics-symbol" aria-roledescription="point" transform="translate(280.25651041666663,0.0018884199827093884)" d="M2.739,0A2.739,2.739,0,1,1,-2.739,0A2.739,2.739,0,1,1,2.739,0" fill="#83c9ff" stroke-width="2" opacity="1"/><path aria-label="Number of Validated Messages: 8192; False Positive Ratio: 1; system_type: RMID; num_validation_messages: 8192; false_positive_rate: 1" role="graphics-symbol" aria-roledescription="point" transform="translate(305.734375,0)" d="M2.739,0A2.739,2.739,0,1,1,-2.739,0A2.739,2.739,0,1,1,2.739,0" fill="#83c9ff" stroke-width="2" opacity="1"/><path aria-label="Number of Validated Messages: 2; False Positive Ratio: 4.0000004e-7; system_type: RSID; num_validation_messages: 2; false_positive_rate: 4.0000004e-7" role="graphics-symbol" aria-roledescription="point" transform="translate(0,231.23983017233923)" d="M2.739,0A2.739,2.739,0,1,1,-2.739,0A2.739,2.739,0,1,1,2.739,0" fill="#ff2b2b" stroke-width="2" opacity="1"/><path aria-label="Number of Validated Messages: 4; False Positive Ratio: 4.0000004e-7; system_type: RSID; num_validation_messages: 4; false_positive_rate: 4.0000004e-7" role="graphics-symbol" aria-roledescription="point" transform="translate(25.477864583333336,231.23983017233923)" d="M2.739,0A2.739,2.739,0,1,1,-2.739,0A2.739,2.739,0,1,1,2.739,0" fill="#ff2b2b" stroke-width="2" opacity="1"/><path aria-label="Number of Validated Messages: 16; False Positive Ratio: 0.00000160000016; system_type: RSID; num_validation_messages: 16; false_positive_rate: 0.00000160000016" role="graphics-symbol" aria-roledescription="point" transform="translate(76.43359375,209.47966191434287)" d="M2.739,0A2.739,2.739,0,1,1,-2.739,0A2.739,2.739,0,1,1,2.739,0" fill="#ff2b2b" stroke-width="2" opacity="1"/><path aria-label="Number of Validated Messages: 256; False Positive Ratio: 0.00002560000256; system_type: RSID; num_validation_messages: 256; false_positive_rate: 0.00002560000256" role="graphics-symbol" aria-roledescription="point" transform="translate(178.34505208333334,165.95932539835016)" d="M2.739,0A2.739,2.739,0,1,1,-2.739,0A2.739,2.739,0,1,1,2.739,0" fill="#ff2b2b" stroke-width="2" opacity="1"/><path aria-label="Number of Validated Messages: 2048; False Positive Ratio: 0.00020480002048; system_type: RSID; num_validation_messages: 2048; false_positive_rate: 0.00020480002048" role="graphics-symbol" aria-roledescription="point" transform="translate(254.77864583333334,133.31907301135578)" d="M2.739,0A2.739,2.739,0,1,1,-2.739,0A2.739,2.739,0,1,1,2.739,0" fill="#ff2b2b" stroke-width="2" opacity="1"/><path aria-label="Number of Validated Messages: 4096; False Positive Ratio: 0.00040960004096; system_type: RSID; num_validation_messages: 4096; false_positive_rate: 0.00040960004096" role="graphics-symbol" aria-roledescription="point" transform="translate(280.25651041666663,122.43898888235762)" d="M2.739,0A2.739,2.739,0,1,1,-2.739,0A2.739,2.739,0,1,1,2.739,0" fill="#ff2b2b" stroke-width="2" opacity="1"/></g><g class="mark-group role-legend" role="graphics-symbol" aria-roledescription="legend" aria-label="Symbol legend titled 'System Type' for fill color and stroke color with 3 values: Average Error, RMID, RSID"><g transform="translate(0,328)"><path class="background" aria-hidden="true" d="M0,0h226v49h-226Z" pointer-events="none"/><g><g class="mark-group role-legend-entry"><g transform="translate(7,26)"><path class="background" aria-hidden="true" d="M0,0h0v0h0Z" pointer-events="none"/><g><g class="mark-group role-scope" role="graphics-object" aria-roledescription="group mark container"><g transform="translate(0,0)"><path class="background" aria-hidden="true" d="M0,0h96.54204559326172v16h-96.54204559326172Z" pointer-events="none" opacity="1"/><g><g class="mark-symbol role-legend-symbol" pointer-events="none"><path transform="translate(7,7)" d="M5,0A5,5,0,1,1,-5,0A5,5,0,1,1,5,0" fill="#0068c9" stroke="#0068c9" stroke-width="4" opacity="1"/></g><g class="mark-text role-legend-label" pointer-events="none"><text text-anchor="start" transform="translate(18,11)" font-family="&quot;Source Sans&quot;, sans-serif" font-size="14px" font-weight="400" fill="#808495" opacity="1">Average Error</text></g></g><path class="foreground" aria-hidden="true" d="" pointer-events="none" display="none"/></g><g transform="translate(107,0)"><path class="background" aria-hidden="true" d="M0,0h48.438127517700195v16h-48.438127517700195Z" pointer-events="none" opacity="1"/><g><g class="mark-symbol role-legend-symbol" pointer-events="none"><path transform="translate(7,7)" d="M5,0A5,5,0,1,1,-5,0A5,5,0,1,1,5,0" fill="#83c9ff" stroke="#83c9ff" stroke-width="4" opacity="1"/></g><g class="mark-text role-legend-label" pointer-events="none"><text text-anchor="start" transform="translate(18,11)" font-family="&quot;Source Sans&quot;, sans-serif" font-size="14px" font-weight="400" fill="#808495" opacity="1">RMID</text></g></g><path class="foreground" aria-hidden="true" d="" pointer-events="none" display="none"/></g><g transform="translate(166,0)"><path class="background" aria-hidden="true" d="M0,0h45.537841796875v16h-45.537841796875Z" pointer-events="none" opacity="1"/><g><g class="mark-symbol role-legend-symbol" pointer-events="none"><path transform="translate(7,7)" d="M5,0A5,5,0,1,1,-5,0A5,5,0,1,1,5,0" fill="#ff2b2b" stroke="#ff2b2b" stroke-width="4" opacity="1"/></g><g class="mark-text role-legend-label" pointer-events="none"><text text-anchor="start" transform="translate(18,11)" font-family="&quot;Source Sans&quot;, sans-serif" font-size="14px" font-weight="400" fill="#808495" opacity="1">RSID</text></g></g><path class="foreground" aria-hidden="true" d="" pointer-events="none" display="none"/></g></g></g><path class="foreground" aria-hidden="true" d="" pointer-events="none" display="none"/></g></g><g class="mark-text role-legend-title" pointer-events="none"><text text-anchor="start" transform="translate(7,18)" font-family="&quot;Source Sans&quot;, sans-serif" font-size="14px" font-style="normal" font-weight="400" fill="#808495" opacity="1">System Type</text></g></g><path class="foreground" aria-hidden="true" d="" pointer-events="none" display="none"/></g></g></g><path class="foreground" aria-hidden="true" d="" display="none"/></g></g></g></svg>